<svg id="Layer_1" data-name="Layer 1" xmlns="http://www.w3.org/2000/svg" viewBox="0 0 48 48"><defs><style>.cls-1{fill:#d1d3d3;}.cls-2{fill:#e8e8e8;}.cls-3{fill:#007934;}.cls-4,.cls-6{fill:#333e48;}.cls-5{fill:#004a94;}.cls-6{font-size:9.59px;font-family:OpenSans-Extrabold, Open Sans;font-weight:700;}.cls-7{fill:#8d9aad;stroke:#000;}.cls-8{fill:#fff;}</style></defs><title>word1-new</title><path class="cls-1" d="M28.19,9h7.33L28.19,1.67Zm0,0"/><polygon class="cls-2" points="28.2 1.67 1.09 1.67 1.09 45.65 35.52 45.65 35.52 9 28.2 1.67"/><path class="cls-3" d="M29.33,5.33H1.09V1.67h27.1Zm0,0"/><path class="cls-4" d="M36.29,8.23,29,.9a1.06,1.06,0,0,0-.77-.32H1.09A1.09,1.09,0,0,0,0,1.67v44a1.09,1.09,0,0,0,1.09,1.09H35.52a1.09,1.09,0,0,0,1.09-1.09V9a1.1,1.1,0,0,0-.32-.77Zm-7-3.94L32.9,7.91H29.28Zm5.15,40.28H2.17V6.42H27.11V9a1.08,1.08,0,0,0,1.08,1.08h6.24ZM18.7,34.44"/><rect class="cls-5" x="2.17" y="2.75" width="24.93" height="1.49"/><text class="cls-6" transform="translate(6.21 41.45)">DOC</text><path class="cls-7" d="M47.5,40.05V37.92L45,37.51a6.2,6.2,0,0,0-.69-1.68l1.47-2.1-1.5-1.51-2.07,1.5a5.7,5.7,0,0,0-1.69-.7l-.44-2.52H37.93L37.52,33a6,6,0,0,0-1.69.69l-2.07-1.48-1.5,1.51,1.45,2.08a6.22,6.22,0,0,0-.7,1.7l-2.5.41v2.13l2.49.44a6,6,0,0,0,.71,1.69l-1.47,2.07,1.5,1.5,2.08-1.46a6,6,0,0,0,1.69.7l.42,2.51h2.12L40.5,45a6.22,6.22,0,0,0,1.68-.7l2.1,1.47,1.5-1.5-1.5-2.08A6.2,6.2,0,0,0,45,40.49ZM39,42a3,3,0,1,1,3-3A3,3,0,0,1,39,42Z"/><ellipse class="cls-8" cx="39" cy="39" rx="2.7" ry="2.71"/><rect class="cls-5" x="9.5" y="10.62" width="17.43" height="17.44"/><rect class="cls-8" x="11.02" y="12.13" width="14.4" height="14.42"/><path class="cls-5" d="M15,22.13l.27-.69.63-1.56,2.24-5.16h2.25V20a12.7,12.7,0,0,1-.18,2.11l.89-2.31,2-5.1h2.59L21.47,24.5H18.39V20.35c0-.69,0-1.41.08-2.17a17.85,17.85,0,0,1-.79,2.34L16,24.5h-2.9l-.33-9.78h2.48l-.07,4.9A18.72,18.72,0,0,1,15,22.13Zm0,0"/></svg>