<svg id="Layer_1" data-name="Layer 1" xmlns="http://www.w3.org/2000/svg" viewBox="0 0 48 48"><defs><style>.cls-1{fill:#d1d3d3;}.cls-2{fill:#e8e8e8;}.cls-3{fill:#007934;}.cls-4,.cls-6{fill:#333e48;}.cls-5{fill:#004a94;}.cls-6{font-size:7.72px;font-family:OpenSans-Extrabold, Open Sans;font-weight:700;}.cls-7{fill:#8d9aad;stroke:#000;}.cls-8{fill:#fff;}.cls-9{fill:none;stroke:#8d9aad;stroke-miterlimit:10;stroke-width:2px;}</style></defs><title>word2-new</title><path class="cls-1" d="M28.33,11.88h5.89L28.33,6Zm0,0"/><polygon class="cls-2" points="28.33 5.98 6.52 5.98 6.52 41.37 34.22 41.37 34.22 11.88 28.33 5.98"/><path class="cls-3" d="M29.24,8.93H6.52V6H28.33Zm0,0"/><path class="cls-4" d="M34.84,11.26l-5.9-5.9a.86.86,0,0,0-.61-.25H6.52A.88.88,0,0,0,5.64,6V41.37a.89.89,0,0,0,.88.88h27.7a.88.88,0,0,0,.87-.88V11.88a.9.9,0,0,0-.25-.62ZM29.2,8.1,32.11,11H29.2Zm4.14,32.4H7.39V9.81H27.45v2.07a.88.88,0,0,0,.88.88h5ZM20.69,32.35"/><rect class="cls-5" x="7.39" y="6.86" width="20.06" height="1.2"/><text class="cls-6" transform="translate(10.64 37.99)">DOC</text><path class="cls-7" d="M43.86,36.42V34.71l-2-.33A5,5,0,0,0,41.26,33l1.19-1.68-1.21-1.2-1.67,1.19a4.87,4.87,0,0,0-1.35-.56l-.36-2H36.15l-.32,2a4.69,4.69,0,0,0-1.37.55L32.8,30.15l-1.21,1.2L32.76,33a4.94,4.94,0,0,0-.56,1.36l-2,.33v1.71l2,.35a5,5,0,0,0,.57,1.36l-1.18,1.65L32.78,41l1.68-1.17a5.07,5.07,0,0,0,1.36.56l.33,2h1.71l.36-2a5.22,5.22,0,0,0,1.35-.57L41.26,41l1.21-1.21-1.21-1.66a5,5,0,0,0,.56-1.35ZM37,38a2.38,2.38,0,1,1,2.38-2.37A2.38,2.38,0,0,1,37,38Z"/><circle class="cls-8" cx="37.02" cy="35.58" r="2.17"/><rect class="cls-5" x="13.29" y="13.19" width="14.02" height="14.03"/><rect class="cls-8" x="14.51" y="14.4" width="11.59" height="11.6"/><path class="cls-5" d="M17.71,22.45l.22-.56.5-1.25,1.81-4.16H22v4.27a9.91,9.91,0,0,1-.14,1.7l.72-1.86,1.63-4.11h2.08l-3.41,7.87H20.44V21c0-.56,0-1.14.07-1.75a15,15,0,0,1-.64,1.88l-1.36,3.2H16.17l-.26-7.87h2l0,3.95a14.65,14.65,0,0,1-.14,2Zm0,0"/><rect class="cls-9" x="1" y="1" width="46" height="46" rx="4" ry="4"/></svg>