<svg id="Layer_1" data-name="Layer 1" xmlns="http://www.w3.org/2000/svg" viewBox="0 0 16 16"><defs><style>.cls-1{fill:#262d33;}.cls-2{fill:#316cb3;}</style></defs><title>active-return2</title><path class="cls-1" d="M4.69.27A.27.27,0,0,1,5,0H9.33a4.67,4.67,0,0,1,0,9.34h-5l2,1.94a.27.27,0,0,1,0,.38L5,12.88a.26.26,0,0,1-.38,0L.08,8.32a.26.26,0,0,1,0-.38L4.64,3.39a.26.26,0,0,1,.19-.08A.27.27,0,0,1,5,3.39L6.23,4.6a.28.28,0,0,1,0,.38L4.28,6.93H9.33a2.25,2.25,0,0,0,0-4.5H5a.27.27,0,0,1-.27-.27V.27Zm0,0"/><polygon class="cls-2" points="9.04 16 10.82 11.61 9.04 7.21 16 11.61 9.04 16"/></svg>