<svg id="Layer_1" data-name="Layer 1" xmlns="http://www.w3.org/2000/svg" viewBox="0 0 16 16"><defs><style>.cls-1{fill:#262d33;}.cls-2{fill:#e24b4b;}</style></defs><title>active-return1</title><path class="cls-1" d="M6.43,7.39a.18.18,0,0,1,.18-.18h3a3.17,3.17,0,0,1,0,6.34H6.15l1.33,1.31a.24.24,0,0,1,0,.13.19.19,0,0,1,0,.13L6.65,16a.18.18,0,0,1-.25,0l-3.1-3.1a.18.18,0,0,1,0-.25L6.4,9.5a.18.18,0,0,1,.12-.05.19.19,0,0,1,.13.05l.83.83a.19.19,0,0,1,0,.26L6.15,11.91H9.58a1.53,1.53,0,1,0,0-3.05h-3a.18.18,0,0,1-.18-.18V7.39Zm0,0"/><path class="cls-2" d="M8,0A2.47,2.47,0,0,0,5.25,2.5C5.25,3.5,7.45,7,8,8c.55-1,2.75-4.5,2.75-5.5A2.47,2.47,0,0,0,8,0ZM8,3.38a.88.88,0,1,1,.88-.88A.89.89,0,0,1,8,3.38Z"/></svg>