<svg id="Layer_1" data-name="Layer 1" xmlns="http://www.w3.org/2000/svg" viewBox="0 0 48 48"><defs><style>.cls-1{fill:#8d9aad;stroke:#000;}.cls-2{fill:#e24b4b;}</style></defs><title>noflobot1</title><path class="cls-1" d="M38.46,25.77v-3.6l-4.31-.7A10.34,10.34,0,0,0,33,18.62l2.51-3.55-2.56-2.55L29.4,15.05a10.36,10.36,0,0,0-2.87-1.19L25.78,9.6H22.16l-.69,4.25A10.56,10.56,0,0,0,18.59,15l-3.52-2.5-2.55,2.55L15,18.59a10.45,10.45,0,0,0-1.2,2.88l-4.25.7v3.6l4.25.75A10.15,10.15,0,0,0,15,29.4l-2.51,3.49L15,35.44,18.58,33a10.47,10.47,0,0,0,2.87,1.18l.71,4.25h3.62l.76-4.26A10.94,10.94,0,0,0,29.4,33L33,35.44l2.55-2.55L33,29.37a10.22,10.22,0,0,0,1.18-2.85ZM24,29a5,5,0,1,1,5-5A5,5,0,0,1,24,29Z"/><path class="cls-2" d="M24,5A19,19,0,0,0,10.51,37.37l.06.06.06.06A19,19,0,1,0,24,5Zm0,2.49a16.43,16.43,0,0,1,10.75,4L11.49,34.75A16.49,16.49,0,0,1,24,7.49Zm0,33a16.43,16.43,0,0,1-10.75-4L36.51,13.25A16.49,16.49,0,0,1,24,40.51Zm0,0"/></svg>