<svg id="Layer_1" data-name="Layer 1" xmlns="http://www.w3.org/2000/svg" viewBox="0 0 48 48"><defs><style>.cls-1{fill:#8d9aad;stroke:#000;}.cls-2{fill:#e24b4b;}.cls-3{fill:none;stroke:#8d9aad;stroke-miterlimit:10;stroke-width:2px;}</style></defs><title>noflobot2</title><path class="cls-1" d="M36.55,25.54V22.41l-3.73-.61a9.1,9.1,0,0,0-1-2.47L34,16.24,31.75,14l-3.06,2.2a8.82,8.82,0,0,0-2.49-1l-.66-3.7H22.41l-.61,3.7a9.11,9.11,0,0,0-2.5,1L16.25,14,14,16.24l2.15,3.06a8.88,8.88,0,0,0-1,2.5l-3.69.61v3.13l3.68.65a9.18,9.18,0,0,0,1,2.5l-2.17,3,2.22,2.21,3.07-2.14a9.13,9.13,0,0,0,2.5,1l.62,3.7h3.13l.66-3.7a9.3,9.3,0,0,0,2.49-1l3.1,2.16L34,31.72l-2.22-3.06a9,9,0,0,0,1-2.47ZM24,28.36A4.36,4.36,0,1,1,28.38,24,4.37,4.37,0,0,1,24,28.36Z"/><path class="cls-2" d="M24,7.5A16.49,16.49,0,0,0,12.29,35.61l0,.06.06,0A16.5,16.5,0,1,0,24,7.5Zm0,2.16a14.29,14.29,0,0,1,9.34,3.47L13.13,33.34A14.33,14.33,0,0,1,24,9.66Zm0,28.68a14.29,14.29,0,0,1-9.34-3.47L34.87,14.66A14.33,14.33,0,0,1,24,38.34Zm0,0"/><rect class="cls-3" x="1" y="1" width="46" height="46" rx="4" ry="4"/></svg>