<svg id="Layer_1" data-name="Layer 1" xmlns="http://www.w3.org/2000/svg" viewBox="0 0 48 48"><defs><style>.cls-1{fill:#fff;}.cls-2{fill:#274c82;}.cls-3{fill:#8d9aad;stroke:#000;}</style></defs><title>database1</title><rect class="cls-1" x="7.8" y="11.77" width="29.95" height="22.46"/><path class="cls-2" d="M7.85,29.5v5.24a.57.57,0,0,0,.07.29c.71,3.13,7,5.47,14.91,5.47S37,38.17,37.73,35.05a.62.62,0,0,0,.07-.31V29.5c-2.48,1.86-7.58,3.32-15,3.32s-12.5-1.46-15-3.32Z"/><path class="cls-2" d="M24.39,25.12q-.78,0-1.56,0c-.52,0-1,0-1.57,0a33.11,33.11,0,0,1-10.43-1.74,11.83,11.83,0,0,1-3-1.5v6c1.7,1.9,7.42,3.65,15,3.65s13.27-1.75,15-3.65v-6a11.9,11.9,0,0,1-3,1.51,33.28,33.28,0,0,1-10.4,1.73Z"/><path class="cls-2" d="M7.85,14.26v6C9.43,22,14.46,23.67,21.2,23.9h.21l.59,0h1.65l.59,0h.21c6.74-.23,11.77-1.87,13.35-3.63v-6c-2.91,2.14-9.08,3.27-15,3.27s-12.06-1.13-15-3.27Z"/><path class="cls-2" d="M22.83,5.5c-9,0-14.2,2.7-14.89,5.44a.7.7,0,0,0-.09.32v1.47c1.7,1.9,7.38,3.65,15,3.65s13.27-1.75,15-3.65V11.26a.55.55,0,0,0-.08-.29C37.05,8.21,31.88,5.5,22.83,5.5Z"/><path class="cls-3" d="M41.7,34.55V32.42L39.18,32a5.89,5.89,0,0,0-.69-1.68L40,28.23l-1.5-1.51-2.06,1.5a5.48,5.48,0,0,0-1.67-.7L34.29,25H32.18l-.41,2.51a6.07,6.07,0,0,0-1.68.69L28,26.72l-1.49,1.51L28,30.31a5.65,5.65,0,0,0-.7,1.7l-2.49.41v2.13l2.48.44a6.28,6.28,0,0,0,.7,1.69l-1.46,2.07L28,40.25l2.07-1.46a6,6,0,0,0,1.68.7L32.18,42h2.11l.44-2.52a6.22,6.22,0,0,0,1.68-.7l2.08,1.47L40,38.75l-1.49-2.08A5.89,5.89,0,0,0,39.18,35Zm-8.45,1.91a3,3,0,1,1,3-3A3,3,0,0,1,33.25,36.46Z"/><ellipse class="cls-1" cx="33.25" cy="33.5" rx="2.68" ry="2.71"/></svg>