<svg id="Layer_1" data-name="Layer 1" xmlns="http://www.w3.org/2000/svg" viewBox="0 0 48 48"><defs><style>.cls-1{fill:none;stroke:#8d9aad;stroke-width:2px;}.cls-1,.cls-4{stroke-miterlimit:10;}.cls-2{fill:#fff;}.cls-3{fill:#274c82;}.cls-4{fill:#8d9aad;stroke:#171f28;}</style></defs><title>database2</title><rect class="cls-1" x="1" y="1" width="46" height="46" rx="4" ry="4"/><rect class="cls-2" x="9.61" y="13.21" width="27.39" height="20.53"/><path class="cls-3" d="M9.65,29.42v4.8a.58.58,0,0,0,.06.26c.65,2.86,6.44,5,13.63,5s13-2.13,13.62-5a.53.53,0,0,0,.07-.28v-4.8c-2.26,1.7-6.93,3-13.69,3s-11.43-1.34-13.69-3Z"/><path class="cls-3" d="M24.77,25.42c-.48,0-.95,0-1.43,0s-.95,0-1.43,0a30.17,30.17,0,0,1-9.53-1.59,10.53,10.53,0,0,1-2.73-1.38V28c1.56,1.74,6.79,3.34,13.69,3.34S35.48,29.69,37,28v-5.5a10.69,10.69,0,0,1-2.75,1.39,30.4,30.4,0,0,1-9.51,1.58Z"/><path class="cls-3" d="M9.65,15.49V21c1.44,1.61,6,3.1,12.2,3.31h3C31,24.09,35.59,22.6,37,21v-5.5c-2.66,2-8.3,3-13.69,3s-11-1-13.69-3Z"/><path class="cls-3" d="M23.34,7.48c-8.26,0-13,2.47-13.61,5a.55.55,0,0,0-.08.29V14.1c1.55,1.73,6.74,3.33,13.69,3.33S35.48,15.83,37,14.1V12.75a.6.6,0,0,0-.07-.27c-.61-2.52-5.34-5-13.62-5Z"/><ellipse class="cls-2" cx="31.89" cy="31.1" rx="4.71" ry="4.58"/><path class="cls-4" d="M39.89,33V31l-2.38-.39A5.92,5.92,0,0,0,36.86,29l1.39-2-1.42-1.42-1.95,1.41a5.57,5.57,0,0,0-1.59-.66L32.88,24h-2l-.39,2.36A6,6,0,0,0,28.9,27L27,25.64l-1.41,1.42,1.37,2a5.75,5.75,0,0,0-.66,1.6L23.89,31v2l2.35.42a5.65,5.65,0,0,0,.67,1.6L25.52,37l1.41,1.41,2-1.37a6.07,6.07,0,0,0,1.6.66L30.88,40h2l.42-2.37A5.81,5.81,0,0,0,34.88,37l2,1.38L38.27,37l-1.41-2a5.92,5.92,0,0,0,.65-1.58Zm-8,1.81A2.79,2.79,0,1,1,34.68,32,2.79,2.79,0,0,1,31.89,34.81Z"/></svg>