<svg id="Layer_1" data-name="Layer 1" xmlns="http://www.w3.org/2000/svg" viewBox="0 0 16 16"><defs><style>.cls-1{fill:#ea8b34;}.cls-2{fill:#fff;}.cls-3{fill:#2c2c2c;}</style></defs><title>delay</title><path class="cls-1" d="M14,14,11.93,9.91,10.08,6.33,8,2.36c-.5-1-1.34-1-1.85,0l-2,4L2.26,10l-2,4c-.51,1,0,1.86,1,1.86H13C14,15.82,14.5,14.94,14,14Zm-5.91-.18h-2v-2h2Zm0-3h-2V6.67h2Z"/><circle class="cls-2" cx="12.5" cy="4.5" r="3.5"/><polygon class="cls-3" points="13.97 5.64 12.13 4.44 12.13 1.67 11.38 1.68 11.38 4.8 13.59 6.3 13.97 5.64"/><path class="cls-3" d="M12.1,8.07a3.95,3.95,0,0,0,0-7.89V1h0A3.07,3.07,0,0,1,14.27,6.3a3.06,3.06,0,0,1-2.17.94Zm0-7.89a3.95,3.95,0,1,0,0,7.89h0V7.24h0A3.07,3.07,0,0,1,9.92,2,3.07,3.07,0,0,1,12.1,1V.18Z"/></svg>