<svg id="Layer_1" data-name="Layer 1" xmlns="http://www.w3.org/2000/svg" viewBox="0 0 48 48"><defs><style>.cls-1,.cls-4{fill:#fff;}.cls-2,.cls-3{fill:#20744a;}.cls-2,.cls-4{fill-rule:evenodd;}.cls-5{fill:#8d9aad;stroke:#000;}</style></defs><title>excel1</title><rect class="cls-1" x="5" y="10" width="36" height="24"/><path class="cls-2" d="M40.35,8.24H26.6V5L4,8.49V39.1L26.6,43V38.19H40.35A1.57,1.57,0,0,0,42,36.7v-27A1.58,1.58,0,0,0,40.35,8.24ZM40.56,37h-14l0-2.57H29.9v-3H26.5V29.63H29.9v-3H26.46l0-1.77H29.9v-3H26.43V20.11H29.9v-3H26.43V15.36H29.9v-3H26.43V9.65H40.56Z"/><rect class="cls-3" x="31.8" y="12.37" width="5.87" height="2.99"/><rect class="cls-3" x="31.8" y="17.12" width="5.87" height="2.99"/><rect class="cls-3" x="31.8" y="21.88" width="5.87" height="2.99"/><rect class="cls-3" x="31.8" y="26.64" width="5.87" height="2.99"/><rect class="cls-3" x="31.8" y="31.4" width="5.87" height="2.99"/><polygon class="cls-4" points="9.9 16.76 12.81 16.59 14.64 21.64 16.81 16.39 19.72 16.22 16.18 23.38 19.72 30.55 16.64 30.34 14.56 24.87 12.48 30.13 9.65 29.88 12.94 23.55 9.9 16.76"/><path class="cls-5" d="M43.5,36.05V33.92L41,33.51a6.2,6.2,0,0,0-.69-1.68l1.47-2.1-1.5-1.51-2.08,1.5a5.54,5.54,0,0,0-1.68-.7l-.44-2.52H33.92L33.51,29a6.26,6.26,0,0,0-1.69.69l-2.07-1.48-1.5,1.51,1.45,2.08a6.22,6.22,0,0,0-.7,1.7l-2.5.41v2.13l2.5.44a6,6,0,0,0,.7,1.69l-1.47,2.07,1.5,1.5,2.08-1.46a6,6,0,0,0,1.69.7l.42,2.51h2.13L36.49,41a6.28,6.28,0,0,0,1.69-.7l2.09,1.47,1.5-1.5-1.49-2.08A6.2,6.2,0,0,0,41,36.49ZM35,38a3,3,0,1,1,3-3A3,3,0,0,1,35,38Z"/><ellipse class="cls-1" cx="35" cy="35" rx="2.7" ry="2.71"/></svg>