<svg id="Layer_1" data-name="Layer 1" xmlns="http://www.w3.org/2000/svg" viewBox="0 0 48 48"><defs><style>.cls-1,.cls-4{fill:#fff;}.cls-2,.cls-3{fill:#20744a;}.cls-2,.cls-4{fill-rule:evenodd;}.cls-5{fill:#8d9aad;stroke:#000;}.cls-6{fill:none;stroke:#8d9aad;stroke-miterlimit:10;stroke-width:2px;}</style></defs><title>excel2</title><rect class="cls-1" x="7.12" y="11.09" width="31.26" height="20.84"/><path class="cls-2" d="M37.81,9.57H25.87V6.75l-19.62,3V36.37l19.62,3.38V35.58H37.81a1.37,1.37,0,0,0,1.44-1.3V10.86A1.37,1.37,0,0,0,37.81,9.57ZM38,34.5H25.83l0-2.23h2.94v-2.6h-3V28.14h3v-2.6h-3V24h3v-2.6h-3V19.88h3v-2.6h-3V15.74h3V13.15h-3V10.79H38Z"/><rect class="cls-3" x="30.4" y="13.15" width="5.09" height="2.6"/><rect class="cls-3" x="30.4" y="17.28" width="5.09" height="2.6"/><rect class="cls-3" x="30.4" y="21.41" width="5.09" height="2.6"/><rect class="cls-3" x="30.4" y="25.54" width="5.09" height="2.6"/><rect class="cls-3" x="30.4" y="29.67" width="5.09" height="2.6"/><polygon class="cls-4" points="11.37 16.96 13.9 16.82 15.49 21.2 17.37 16.64 19.9 16.49 16.83 22.71 19.9 28.94 17.23 28.76 15.42 24.01 13.61 28.57 11.16 28.36 14.01 22.86 11.37 16.96"/><path class="cls-5" d="M41.23,33.79l0-2-2.38-.41a5.58,5.58,0,0,0-.64-1.58l1.4-2-1.4-1.43-2,1.4a6,6,0,0,0-1.58-.68l-.4-2.36-2,0-.4,2.36a5.59,5.59,0,0,0-1.6.64l-1.93-1.4-1.42,1.4,1.35,2a5.65,5.65,0,0,0-.67,1.6l-2.35.37,0,2,2.35.43a5.33,5.33,0,0,0,.65,1.6l-1.4,1.93,1.4,1.42,2-1.35a5.94,5.94,0,0,0,1.58.66l.38,2.36,2,0,.43-2.36a5.87,5.87,0,0,0,1.59-.66l2,1.4,1.42-1.4-1.39-2a5.74,5.74,0,0,0,.66-1.57Zm-8,1.75A2.79,2.79,0,1,1,36,32.77,2.79,2.79,0,0,1,33.23,35.54Z"/><ellipse class="cls-1" cx="33.25" cy="32.75" rx="2.55" ry="2.54" transform="translate(0.22 65.72) rotate(-89.52)"/><rect class="cls-6" x="1" y="1" width="46" height="46" rx="4" ry="4"/></svg>