<svg id="Layer_1" data-name="Layer 1" xmlns="http://www.w3.org/2000/svg" viewBox="0 0 48 48"><defs><style>.cls-1{fill:#fff;}.cls-2{fill:#0071bb;}.cls-3{fill:#8d9aad;stroke:#000;}.cls-4{fill:none;stroke:#8d9aad;stroke-miterlimit:10;stroke-width:2px;}</style></defs><title>exchange2</title><rect class="cls-1" x="8.86" y="14.57" width="13.03" height="16.5"/><rect class="cls-1" x="26.66" y="13.7" width="11.29" height="13.03"/><path class="cls-2" d="M6.25,10.11V36.39l18.49,3.36v-33Zm12.42,20-7-.69V15.59l6.74-.76v2.79l-4.11.31v3.19l3.83-.1v2.76l-3.83,0V27l4.38.26Z"/><path class="cls-2" d="M37.6,13.19H26.48v2.44H27a.43.43,0,0,1,.3.13l1.66,1.75a.31.31,0,0,1,0,.42l-.6.63a.28.28,0,0,1-.41,0l-.75-.77a.09.09,0,0,0-.06,0h-.61v4.7c1.14,1.08,2.11,1.89,1.82,2.22s-.93-.14-1.82-.71v4.77h.28c2.07-1.62,3.76-4.56,4.26-4.06s-3.4,6.12-3.89,6.19h-.65v2.44H37.6a1.69,1.69,0,0,0,1.65-1.73V14.92A1.69,1.69,0,0,0,37.6,13.19Zm-.68,15.55v1.69a.43.43,0,0,1-.41.44H32.37a.39.39,0,0,1-.29-.13L30.42,29a.29.29,0,0,1,0-.42l.6-.63a.27.27,0,0,1,.4,0l.75.77a.09.09,0,0,0,.06,0h2.66V26.29c-1.54-2.17-4.34-3.94-3.87-4.47s5.83,3.57,5.9,4.09Zm0-11v2.65a.47.47,0,0,1-.12.3l-1.67,1.75a.27.27,0,0,1-.4,0l-.6-.63a.3.3,0,0,1,0-.43l.73-.79a.07.07,0,0,0,0-.06V17.76H32.56c-2.07,1.62-3.75,4.56-4.26,4.06s3.4-6.12,3.9-6.19h4.31a.43.43,0,0,1,.41.44Z"/><path class="cls-3" d="M41.25,33.73v-2l-2.38-.39a5.92,5.92,0,0,0-.65-1.58l1.38-2-1.41-1.42-1.95,1.41a5.57,5.57,0,0,0-1.59-.66l-.42-2.37h-2l-.38,2.36a5.72,5.72,0,0,0-1.59.65l-2-1.39L26.9,27.79l1.37,1.95a5.78,5.78,0,0,0-.67,1.6l-2.35.39v2l2.35.42a5.63,5.63,0,0,0,.66,1.6l-1.38,1.94,1.41,1.41,2-1.37a5.69,5.69,0,0,0,1.59.66l.39,2.36h2l.42-2.37a5.87,5.87,0,0,0,1.59-.66l2,1.38,1.42-1.41-1.41-2a5.78,5.78,0,0,0,.65-1.58Zm-8,1.81A2.79,2.79,0,1,1,36,32.75,2.79,2.79,0,0,1,33.25,35.54Z"/><ellipse class="cls-1" cx="33.25" cy="32.75" rx="2.54" ry="2.55"/><rect class="cls-4" x="1" y="1" width="46" height="46" rx="4" ry="4"/></svg>