<svg id="Layer_1" data-name="Layer 1" xmlns="http://www.w3.org/2000/svg" viewBox="0 0 48 48"><defs><style>.cls-1{fill:#fff;}.cls-2{fill:#0071bb;}.cls-3{fill:#8d9aad;stroke:#000;}</style></defs><title>exchange1</title><rect class="cls-1" x="7" y="14" width="15" height="19"/><rect class="cls-1" x="27.5" y="13" width="13" height="15"/><path class="cls-2" d="M4,8.87V39.13L25.29,43V5Zm14.31,23-8.08-.79V15.18L18,14.31v3.21l-4.74.35v3.68l4.41-.12v3.18l-4.41-.05v3.78l5,.3Z"/><path class="cls-2" d="M40.1,12.41H27.3v2.82h.54a.45.45,0,0,1,.34.15l1.91,2a.36.36,0,0,1,0,.49l-.69.72a.32.32,0,0,1-.47,0l-.86-.89a.11.11,0,0,0-.07,0h-.7v5.41c1.31,1.24,2.43,2.17,2.09,2.55s-1.07-.15-2.09-.81v5.49h.32c2.38-1.86,4.32-5.24,4.9-4.67s-3.91,7-4.48,7.12H27.3v2.82H40.1a2,2,0,0,0,1.9-2V14.4A2,2,0,0,0,40.1,12.41Zm-.79,17.91v2a.48.48,0,0,1-.47.5H34.08a.45.45,0,0,1-.34-.15l-1.91-2a.36.36,0,0,1,0-.49l.69-.72a.32.32,0,0,1,.47,0l.86.89a.09.09,0,0,0,.07,0H37V27.5C35.21,25,32,23,32.53,22.36s6.71,4.11,6.78,4.71Zm0-12.64v3.05a.5.5,0,0,1-.14.35l-1.91,2a.33.33,0,0,1-.47,0l-.69-.73a.36.36,0,0,1,0-.49L37,21a.09.09,0,0,0,0-.07V17.68H34.29c-2.37,1.86-4.31,5.24-4.9,4.67s3.92-7,4.49-7.12h5a.48.48,0,0,1,.47.5Z"/><path class="cls-3" d="M43.39,36.05V33.92l-2.51-.41a6.2,6.2,0,0,0-.69-1.68l1.47-2.1-1.5-1.51-2.06,1.5a5.59,5.59,0,0,0-1.67-.7L36,26.5H33.87L33.47,29a6.07,6.07,0,0,0-1.68.69l-2.06-1.48-1.49,1.51,1.44,2.08a6.22,6.22,0,0,0-.7,1.7l-2.48.41v2.13l2.48.44a6.28,6.28,0,0,0,.7,1.69l-1.46,2.07,1.49,1.5,2.07-1.46a5.92,5.92,0,0,0,1.68.7l.41,2.51H36L36.43,41a6,6,0,0,0,1.67-.7l2.09,1.47,1.49-1.5-1.49-2.08a6.2,6.2,0,0,0,.69-1.68ZM35,38a3,3,0,1,1,2.94-3A3,3,0,0,1,35,38Z"/><ellipse class="cls-1" cx="34.95" cy="35" rx="2.68" ry="2.71"/></svg>