<svg id="Layer_1" data-name="Layer 1" xmlns="http://www.w3.org/2000/svg" viewBox="0 0 48 48"><defs><style>.cls-1{fill:#316cb3;}.cls-2{fill:none;stroke:#8d9aad;stroke-miterlimit:10;stroke-width:2px;}</style></defs><title>group2</title><circle class="cls-1" cx="24" cy="11.63" r="4.12"/><path class="cls-1" d="M27.19,17.81H26.06a1.06,1.06,0,0,0-.73.3L24,19.45l-1.33-1.34a1.06,1.06,0,0,0-.73-.3H20.81a2,2,0,0,0-2,1.83L17.82,27a1,1,0,0,0,.25.81,1,1,0,0,0,.77.35H20l.86,10.52a2.05,2.05,0,0,0,2.05,1.86h2.26a2.05,2.05,0,0,0,2.05-1.87L28,28.12h1.12a1,1,0,0,0,.77-.35,1,1,0,0,0,.25-.81l-.94-7.29A2.05,2.05,0,0,0,27.19,17.81Z"/><circle class="cls-1" cx="34.31" cy="11.63" r="4.12"/><path class="cls-1" d="M13.69,7.5a4.13,4.13,0,1,0,4.12,4.13h0A4.13,4.13,0,0,0,13.69,7.5Z"/><path class="cls-1" d="M39.55,19.67a2,2,0,0,0-2-1.86H36.37a1.06,1.06,0,0,0-.73.3l-1.33,1.34L33,18.11a1,1,0,0,0-.73-.3H31.12a2.09,2.09,0,0,0-.36.07,4.08,4.08,0,0,1,.53,1.55l.94,7.27a3.1,3.1,0,0,1-.76,2.45,3.05,3.05,0,0,1-1,.72l.68,6.71a2.06,2.06,0,0,0,2.06,1.86h2.25a2.07,2.07,0,0,0,2.06-1.88l.86-8.44h1.11a1,1,0,0,0,.77-.35,1,1,0,0,0,.25-.81Z"/><path class="cls-1" d="M15.77,26.7l.94-7.32a3.89,3.89,0,0,1,.52-1.5,2.17,2.17,0,0,0-.35-.07H15.75a1,1,0,0,0-.73.3l-1.33,1.34-1.34-1.34a1,1,0,0,0-.72-.3H10.5a2,2,0,0,0-2.05,1.83L7.51,27a1,1,0,0,0,1,1.16H9.64l.87,8.46a2,2,0,0,0,2.05,1.86h2.26a2.06,2.06,0,0,0,2.05-1.88l.69-6.69a3,3,0,0,1-1.79-3.17Z"/><rect class="cls-2" x="1" y="1" width="46" height="46" rx="4" ry="4"/></svg>