<svg id="Layer_1" data-name="Layer 1" xmlns="http://www.w3.org/2000/svg" viewBox="0 0 48 48"><defs><style>.cls-1{fill:#303c42;}.cls-2{fill:#f9c20a;}</style></defs><title>junction4</title><path class="cls-1" d="M41.75,20.72,27.28,6.25a4.64,4.64,0,0,0-6.56,0L6.25,20.72a4.64,4.64,0,0,0,0,6.56L20.72,41.75a4.64,4.64,0,0,0,6.56,0L41.75,27.28a4.64,4.64,0,0,0,0-6.56Z"/><path class="cls-2" d="M40.62,26.16,26.16,40.62a3.16,3.16,0,0,1-4.32,0L7.38,26.16a3,3,0,0,1,0-4.32L21.84,7.38a3,3,0,0,1,4.32,0L40.62,21.84a3,3,0,0,1,0,4.32Z"/></svg>