<svg id="Layer_1" data-name="Layer 1" xmlns="http://www.w3.org/2000/svg" viewBox="0 0 16 16"><defs><style>.cls-1{fill:#262d33;}.cls-2{fill:#e24b4b;}</style></defs><title>overdue</title><path class="cls-1" d="M8,2.14a6.93,6.93,0,1,0,6.9,6.93A6.91,6.91,0,0,0,8,2.14ZM8,15.08a6,6,0,1,1,6-6A6,6,0,0,1,8,15.08Z"/><path class="cls-2" d="M7.82,3.67V9.18H13.3A5.49,5.49,0,0,0,7.82,3.67Zm0,0"/><rect class="cls-1" x="7.82" y="12.84" width="0.98" height="1.63"/><rect class="cls-1" x="2.74" y="8.4" width="1.63" height="1.23"/><path class="cls-1" d="M11.71,11.35l.89.51c.08-.14.15-.29.22-.44l-.87-.5Z"/><path class="cls-1" d="M10.09,12.79l.62,1.06a3.51,3.51,0,0,0,.4-.27l-.6-1Z"/><polygon class="cls-1" points="5.66 13.86 5.24 13.61 5.86 12.54 6.28 12.79 5.66 13.86"/><polygon class="cls-1" points="3.6 11.96 3.35 11.54 4.42 10.92 4.67 11.35 3.6 11.96"/><polygon class="cls-1" points="4.42 7.12 3.35 6.5 3.6 6.07 4.66 6.69 4.42 7.12"/><polygon class="cls-1" points="5.86 5.49 5.24 4.43 5.66 4.18 6.28 5.25 5.86 5.49"/><path class="cls-1" d="M12.57,2.79l.91.49a.29.29,0,0,0,.38-.11l.37-.7a.28.28,0,0,0-.12-.38L10.27,0A.27.27,0,0,0,9.9.15L9.53.84a.27.27,0,0,0,.11.38l1.07.58-.47.88,1.86,1Z"/></svg>