<svg id="Layer_1" data-name="Layer 1" xmlns="http://www.w3.org/2000/svg" viewBox="0 0 48 48"><defs><style>.cls-1,.cls-2{fill:#316cb3;}.cls-2{stroke:#fff;}.cls-2,.cls-3{stroke-miterlimit:10;}.cls-3{fill:none;stroke:#8d9aad;stroke-width:2px;}</style></defs><title>queue2</title><ellipse class="cls-1" cx="24.68" cy="13.9" rx="3.4" ry="3.34"/><path class="cls-2" d="M27.31,18.92h-.93a.83.83,0,0,0-.6.24l-1.1,1.08-1.1-1.08a.85.85,0,0,0-.6-.24h-.93a1.67,1.67,0,0,0-1.69,1.48l-.78,5.93a.83.83,0,0,0,.21.65.86.86,0,0,0,.64.29h.92l.71,8.52a1.68,1.68,0,0,0,1.69,1.5h1.86a1.69,1.69,0,0,0,1.69-1.52l.71-8.5h.92a.89.89,0,0,0,.64-.29.82.82,0,0,0,.2-.65L29,20.42A1.68,1.68,0,0,0,27.31,18.92Z"/><ellipse class="cls-1" cx="33.82" cy="10.56" rx="3.12" ry="3.06"/><path class="cls-1" d="M36.24,15.16h-.86a.8.8,0,0,0-.55.22l-1,1-1-1a.78.78,0,0,0-.55-.22h-.85a1.54,1.54,0,0,0-1.55,1.36L29.15,22a.73.73,0,0,0,.19.6.77.77,0,0,0,.58.26h.85l.65,7.82A1.54,1.54,0,0,0,33,32h1.71a1.54,1.54,0,0,0,1.55-1.39l.65-7.8h.84a.75.75,0,0,0,.58-.26.73.73,0,0,0,.19-.6l-.7-5.42A1.54,1.54,0,0,0,36.24,15.16Z"/><ellipse class="cls-1" cx="15.1" cy="16.61" rx="3.4" ry="3.34"/><path class="cls-2" d="M17.73,21.63H16.8a.83.83,0,0,0-.6.24L15.1,23,14,21.87a.83.83,0,0,0-.6-.24h-.93a1.68,1.68,0,0,0-1.69,1.48L10,29a.82.82,0,0,0,.2.65.87.87,0,0,0,.64.29h.92l.71,8.52A1.68,1.68,0,0,0,14.17,40H16a1.68,1.68,0,0,0,1.69-1.52l.71-8.5h.92a.87.87,0,0,0,.64-.29.79.79,0,0,0,.2-.65l-.77-5.91A1.68,1.68,0,0,0,17.73,21.63Z"/><rect class="cls-3" x="1" y="1" width="46" height="46" rx="4" ry="4"/></svg>