<svg id="Layer_1" data-name="Layer 1" xmlns="http://www.w3.org/2000/svg" viewBox="0 0 48 48"><defs><style>.cls-1{fill:#316cb3;}</style></defs><title>queue1</title><ellipse class="cls-1" cx="24.47" cy="13.16" rx="3.74" ry="3.68"/><path class="cls-1" d="M27.37,18.67h-1a1,1,0,0,0-.66.27l-1.21,1.19-1.21-1.19a.94.94,0,0,0-.66-.27h-1a1.86,1.86,0,0,0-1.86,1.64l-.85,6.53a.91.91,0,0,0,.23.72.93.93,0,0,0,.7.31h1l.78,9.39a1.86,1.86,0,0,0,1.87,1.65H25.5a1.85,1.85,0,0,0,1.86-1.67l.78-9.37h1a.92.92,0,0,0,.7-.31.88.88,0,0,0,.23-.72l-.85-6.51A1.86,1.86,0,0,0,27.37,18.67Z"/><ellipse class="cls-1" cx="35.64" cy="8.38" rx="3.43" ry="3.38"/><path class="cls-1" d="M38.3,13.44h-.94a.92.92,0,0,0-.61.24l-1.11,1.09-1.11-1.09a.87.87,0,0,0-.6-.24H33a1.7,1.7,0,0,0-1.71,1.49l-.78,6a.81.81,0,0,0,.21.66.86.86,0,0,0,.64.29h.93l.72,8.6A1.69,1.69,0,0,0,34.7,32h1.89a1.71,1.71,0,0,0,1.71-1.53L39,21.88h.93a.86.86,0,0,0,.64-.29.82.82,0,0,0,.21-.67L40,15A1.7,1.7,0,0,0,38.3,13.44Z"/><ellipse class="cls-1" cx="12.82" cy="17.24" rx="3.74" ry="3.68"/><path class="cls-1" d="M15.72,22.76h-1A1,1,0,0,0,14,23l-1.21,1.19L11.61,23a1,1,0,0,0-.66-.27h-1a1.86,1.86,0,0,0-1.86,1.63l-.85,6.53a.93.93,0,0,0,.93,1h1l.78,9.38A1.86,1.86,0,0,0,11.8,43h2a1.86,1.86,0,0,0,1.86-1.67L16.49,32h1a.92.92,0,0,0,.7-.31.89.89,0,0,0,.23-.73l-.85-6.5A1.86,1.86,0,0,0,15.72,22.76Z"/></svg>