<svg id="Layer_1" data-name="Layer 1" xmlns="http://www.w3.org/2000/svg" viewBox="0 0 16 16"><defs><style>.cls-1{fill:#316cb3;}.cls-2,.cls-4{fill:#fff;}.cls-3{fill:#262d33;}.cls-4{stroke:#262d33;stroke-miterlimit:10;stroke-width:0.5px;}.cls-5{fill:#e24b4b;}</style></defs><title>reassign-late</title><ellipse class="cls-1" cx="8" cy="3.43" rx="3.5" ry="3.43"/><path class="cls-1" d="M10.71,7.43h-1a.89.89,0,0,0-.62.25L8,8.79,6.87,7.68a.9.9,0,0,0-.62-.25h-1A1.73,1.73,0,0,0,3.55,9L2.76,15a.84.84,0,0,0,.21.68.88.88,0,0,0,.65.29h8.75a.9.9,0,0,0,.66-.29.8.8,0,0,0,.21-.68L12.45,9A1.73,1.73,0,0,0,10.71,7.43Z"/><circle class="cls-2" cx="11.5" cy="12.5" r="3.5"/><path class="cls-3" d="M11.67,8.4a3.8,3.8,0,1,0,3.78,3.8A3.79,3.79,0,0,0,11.67,8.4Zm0,7.1A3.3,3.3,0,1,1,15,12.2,3.29,3.29,0,0,1,11.67,15.5Z"/><path class="cls-4" d="M7.73,12.68a.32.32,0,0,0,.07-.22.31.31,0,0,0-.07-.21L5.44,9.82a.21.21,0,0,0-.17-.09.19.19,0,0,0-.16.09A.31.31,0,0,0,5,10v1.22H4.21a6.11,6.11,0,0,1-.64,0,3.78,3.78,0,0,1-.57-.1,2,2,0,0,1-.49-.2,1.76,1.76,0,0,1-.39-.34,1.49,1.49,0,0,1-.29-.47,2.87,2.87,0,0,1-.18-.66,5.61,5.61,0,0,1-.06-.86c0-.18,0-.37,0-.59a1,1,0,0,0,0-.11.62.62,0,0,0,0-.12.21.21,0,0,0,0-.12A.11.11,0,0,0,1.5,7.6a.14.14,0,0,0-.1.08.58.58,0,0,0,0,.11s0,.08-.05.14,0,.09,0,.11A6.81,6.81,0,0,0,.8,10.18,5.58,5.58,0,0,0,1,11.77c.4,1.27,1.47,1.91,3.22,1.91H5V14.9a.31.31,0,0,0,.07.21.19.19,0,0,0,.16.09.21.21,0,0,0,.17-.09l2.29-2.43Zm-.41.07"/><path class="cls-5" d="M11.57,9.24v3h3a3,3,0,0,0-3-3Zm0,0"/><rect class="cls-3" x="11.57" y="14.27" width="0.54" height="0.89"/><rect class="cls-3" x="8.78" y="11.83" width="0.89" height="0.67"/><path class="cls-3" d="M13.7,13.45l.49.28a1.34,1.34,0,0,0,.12-.24l-.47-.28Z"/><path class="cls-3" d="M12.82,14.24l.33.58a1.14,1.14,0,0,0,.23-.15l-.33-.57Z"/><polygon class="cls-3" points="10.39 14.82 10.16 14.69 10.5 14.1 10.73 14.24 10.39 14.82"/><polygon class="cls-3" points="9.26 13.79 9.12 13.55 9.71 13.21 9.84 13.45 9.26 13.79"/><polygon class="cls-3" points="9.71 11.13 9.12 10.79 9.26 10.55 9.84 10.89 9.71 11.13"/><polygon class="cls-3" points="10.5 10.24 10.16 9.65 10.39 9.52 10.73 10.1 10.5 10.24"/><path class="cls-3" d="M14.18,8.76l.5.26a.14.14,0,0,0,.2-.06l.21-.38A.16.16,0,0,0,15,8.37l-2.1-1.13a.15.15,0,0,0-.21.07l-.2.38a.15.15,0,0,0,.06.2l.59.32-.26.49,1,.54Z"/></svg>