<svg id="Layer_1" data-name="Layer 1" xmlns="http://www.w3.org/2000/svg" viewBox="0 0 16 16"><defs><style>.cls-1{fill:#316cb3;}.cls-2{fill:#fff;stroke:#2c2c2c;stroke-miterlimit:10;stroke-width:0.5px;}</style></defs><title>reassigned</title><ellipse class="cls-1" cx="8" cy="3.43" rx="3.5" ry="3.43"/><path class="cls-1" d="M10.71,7.43h-1a.89.89,0,0,0-.62.25L8,8.79,6.87,7.68a.9.9,0,0,0-.62-.25h-1A1.73,1.73,0,0,0,3.55,9L2.76,15a.84.84,0,0,0,.21.68.88.88,0,0,0,.65.29h8.75a.9.9,0,0,0,.66-.29.8.8,0,0,0,.21-.68L12.45,9A1.73,1.73,0,0,0,10.71,7.43Z"/><path class="cls-2" d="M11.23,12.68a.29.29,0,0,0,.09-.22.29.29,0,0,0-.09-.21L8.8,9.82a.29.29,0,0,0-.21-.09.29.29,0,0,0-.22.09.29.29,0,0,0-.09.21v1.22H7.22q-.46,0-.84,0a6.38,6.38,0,0,1-.73-.1,3.11,3.11,0,0,1-.63-.2,2.7,2.7,0,0,1-.5-.33,2,2,0,0,1-.38-.48,2.84,2.84,0,0,1-.23-.66,3.81,3.81,0,0,1-.08-.86c0-.18,0-.37,0-.59a.59.59,0,0,1,0-.11.62.62,0,0,0,0-.12.16.16,0,0,0,0-.12.13.13,0,0,0-.11-.05.17.17,0,0,0-.13.08.54.54,0,0,0-.06.11l-.07.14,0,.11a5.73,5.73,0,0,0-.6,2.14,4.35,4.35,0,0,0,.25,1.59C3.58,13,5,13.68,7.22,13.68H8.28V14.9a.29.29,0,0,0,.09.21.29.29,0,0,0,.22.09.29.29,0,0,0,.21-.09l2.43-2.43Zm0,0"/></svg>