<svg id="Layer_1" data-name="Layer 1" xmlns="http://www.w3.org/2000/svg" viewBox="0 0 48 48"><defs><style>.cls-1{fill:#fff;}.cls-2{fill:#1372b8;}.cls-3{fill:#8d9aad;stroke:#000;}</style></defs><title>sharepoint1</title><rect class="cls-1" x="7.05" y="14.5" width="12" height="18"/><path class="cls-2" d="M38.45,19.55a3.65,3.65,0,0,0-.74.08,10.25,10.25,0,0,0-5-5.68,3.88,3.88,0,0,0,0-.48,3.74,3.74,0,0,0-3.61-3.85,3.51,3.51,0,0,0-2.23.83v6a3.45,3.45,0,0,0,2.23.83,3.56,3.56,0,0,0,3-1.66,8.52,8.52,0,0,1,4,4.77,4,4,0,0,0,0,6,8.53,8.53,0,0,1-4.06,4.85,3.55,3.55,0,0,0-3-1.65,3.5,3.5,0,0,0-2.23.82v6a3.45,3.45,0,0,0,2.23.83,3.73,3.73,0,0,0,3.61-3.84,3.89,3.89,0,0,0,0-.49,10.31,10.31,0,0,0,5-5.78,3.27,3.27,0,0,0,.7.08,3.73,3.73,0,0,0,3.6-3.85A3.73,3.73,0,0,0,38.45,19.55Z"/><path class="cls-2" d="M4.1,8.56l0,29.88L25,42.5V4.5ZM15.88,31c-1.7,1.32-3.94.76-5.73,0,0-1.11-.05-2.23-.09-3.35,1.16.91,2.86,2.25,4.24,1,1.06-1.9-1-3.12-2.24-4-2.59-1.67-2.69-6.24-.17-8,1.47-1,3.26-.68,4.89-.43,0,1,0,2.1.07,3.15-1.35-.45-3.08-1.37-4.19.1-.77,2.16,1.68,3,2.86,4.1A5.07,5.07,0,0,1,15.88,31Z"/><path class="cls-3" d="M43.45,35.55V33.42L40.93,33a5.89,5.89,0,0,0-.69-1.68l1.47-2.1-1.5-1.51-2.06,1.5a5.48,5.48,0,0,0-1.67-.7L36,26H33.93l-.41,2.51a6.07,6.07,0,0,0-1.68.69l-2.06-1.48-1.49,1.51,1.45,2.08A5.65,5.65,0,0,0,29,33l-2.49.41v2.13L29,36a6.28,6.28,0,0,0,.7,1.69l-1.46,2.07,1.49,1.5,2.07-1.46a6,6,0,0,0,1.68.7L33.93,43H36l.44-2.52a6.22,6.22,0,0,0,1.68-.7l2.08,1.47,1.49-1.5-1.49-2.08A5.89,5.89,0,0,0,40.93,36ZM35,37.46a3,3,0,1,1,3-3A3,3,0,0,1,35,37.46Z"/><ellipse class="cls-1" cx="35" cy="34.5" rx="2.68" ry="2.71"/></svg>