<svg id="Layer_1" data-name="Layer 1" xmlns="http://www.w3.org/2000/svg" viewBox="0 0 16 16"><defs><style>.cls-1{fill:#262d33;}</style></defs><title>urgent</title><path class="cls-1" d="M13.33,10.67a2.58,2.58,0,0,0-.12-.59c0-3.38,1-4.79,1-4.79a8.22,8.22,0,0,0-3.41,1l-.12-.17a12.76,12.76,0,0,1,.71-3.75A13.22,13.22,0,0,0,9.24,3.68,4.31,4.31,0,0,1,9.18,0C4.54,3.33,1.77,7,1.77,10c0,2.32.58,6,6.2,6,3.32,0,5-1.27,5.32-3.73l.07.07,0-.32A8.68,8.68,0,0,0,13.33,10.67Zm-2.76,2.64c-.36.63-.55.82-2.88.88S4.93,13.75,4.5,13c-1.23-2.26.32-3.69.23-3.52s-.56,1.62,1.69,2.8c-1.11-1.37.9-3,1.64-3.77a10.76,10.76,0,0,0,.79,3.77s1.28-.75,2.21-3.45C11.54,10.89,11.63,11.47,10.57,13.31Z"/></svg>