<svg id="Layer_1" data-name="Layer 1" xmlns="http://www.w3.org/2000/svg" viewBox="0 0 48 48"><defs><style>.cls-1{fill:#316cb3;}</style></defs><title>user1</title><ellipse class="cls-1" cx="24" cy="9.75" rx="4.96" ry="4.75"/><path class="cls-1" d="M27.84,16.87H26.48a1.28,1.28,0,0,0-.88.35L24,18.76l-1.6-1.54a1.28,1.28,0,0,0-.88-.35H20.17A2.44,2.44,0,0,0,17.7,19l-1.12,8.43a1.16,1.16,0,0,0,.29.94,1.3,1.3,0,0,0,.93.4h1.34l1,12.11A2.43,2.43,0,0,0,22.64,43h2.72a2.44,2.44,0,0,0,2.47-2.16l1-12.09h1.33a1.27,1.27,0,0,0,.93-.4,1.14,1.14,0,0,0,.3-.94L30.3,19A2.44,2.44,0,0,0,27.84,16.87Z"/></svg>