<svg id="Layer_1" data-name="Layer 1" xmlns="http://www.w3.org/2000/svg" viewBox="0 0 48 48"><defs><style>.cls-1{fill:#fff;}.cls-2{fill:#265d9c;fill-rule:evenodd;}.cls-3{fill:#8d9aad;stroke:#000;}.cls-4{fill:none;stroke:#8d9aad;stroke-miterlimit:10;stroke-width:2px;}</style></defs><title>word2</title><rect class="cls-1" x="7.99" y="11.09" width="29.53" height="20.84"/><path class="cls-2" d="M37.81,9.58H25.87V6.75l-19.62,3V36.23l19.62,3.52v-4.1H37.81a1.37,1.37,0,0,0,1.44-1.29V10.87A1.37,1.37,0,0,0,37.81,9.58Zm.19,25H25.83V33H37.22V31.43H25.82V29.25H37.22V27.94H25.79V25.79H37.22v-1.5H25.75v-2H37.22V21H25.73V18.61H37.22v-1.3H25.73V14.85H37.22V14H25.73V10.8H38Z"/><polygon class="cls-1" points="11.62 28.23 13.85 28.23 15.47 20.87 16.89 28.23 19.02 28.23 21.31 17.45 19.42 17.45 18.11 25.79 16.46 18.27 14.66 18.27 12.93 25.69 11.62 18.27 9.89 18.27 11.62 28.23"/><path class="cls-3" d="M41.25,33.73v-2l-2.38-.39a5.92,5.92,0,0,0-.65-1.58l1.38-2-1.41-1.42-1.95,1.41a5.57,5.57,0,0,0-1.59-.66l-.42-2.37h-2l-.38,2.36a5.72,5.72,0,0,0-1.59.65l-2-1.39L26.9,27.79l1.37,1.95a5.78,5.78,0,0,0-.67,1.6l-2.35.39v2l2.35.42a5.63,5.63,0,0,0,.66,1.6l-1.38,1.94,1.41,1.41,2-1.37a5.69,5.69,0,0,0,1.59.66l.39,2.36h2l.42-2.37a5.87,5.87,0,0,0,1.59-.66l2,1.38,1.42-1.41-1.41-2a5.78,5.78,0,0,0,.65-1.58Zm-8,1.81A2.79,2.79,0,1,1,36,32.75,2.79,2.79,0,0,1,33.25,35.54Z"/><ellipse class="cls-1" cx="33.25" cy="32.75" rx="2.54" ry="2.55"/><rect class="cls-4" x="1" y="1" width="46" height="46" rx="4" ry="4"/></svg>