<svg id="Layer_1" data-name="Layer 1" xmlns="http://www.w3.org/2000/svg" viewBox="0 0 48 48"><defs><style>.cls-1{fill:#fff;}.cls-2{fill:none;}.cls-3{fill:#3243bf;}.cls-4{fill:#3f4d54;}.cls-5{fill:#8d9aad;stroke:#000;}</style></defs><title>web1</title><circle class="cls-1" cx="23" cy="23" r="19"/><rect class="cls-2" x="4" y="4" width="38" height="38"/><path class="cls-3" d="M15.88,20.4l-2.43,5.52a.4.4,0,0,1-.37.23H11.83a.4.4,0,0,1-.37-.23L10.3,23.29,10,22.53c-.11.27-.22.53-.33.77L8.45,25.93a.41.41,0,0,1-.38.22H6.83a.4.4,0,0,1-.38-.23L4.18,20.39a.3.3,0,0,1,.05-.32.41.41,0,0,1,.32-.15H6a.4.4,0,0,1,.38.25l1,2.8c.08.24.16.46.23.68.09-.22.18-.44.29-.68l1.23-2.82a.4.4,0,0,1,.37-.23h1.16a.4.4,0,0,1,.38.23l1.16,2.76c.11.25.2.48.29.7.07-.21.15-.43.25-.68l1.07-2.77a.41.41,0,0,1,.38-.24h1.36a.45.45,0,0,1,.33.15A.31.31,0,0,1,15.88,20.4Zm13,0-2.43,5.52a.4.4,0,0,1-.37.23H24.87a.39.39,0,0,1-.37-.23l-1.16-2.63L23,22.53c-.11.27-.22.53-.33.77l-1.21,2.63a.43.43,0,0,1-.38.22H19.87a.4.4,0,0,1-.38-.23l-2.28-5.53a.34.34,0,0,1,.05-.32.45.45,0,0,1,.33-.15H19a.41.41,0,0,1,.39.25l1,2.8c.08.24.16.46.23.68l.28-.68,1.23-2.82a.4.4,0,0,1,.38-.23h1.16a.4.4,0,0,1,.37.23l1.17,2.76c.1.25.2.48.28.7l.25-.68,1.08-2.77a.41.41,0,0,1,.38-.24h1.36a.45.45,0,0,1,.33.15A.33.33,0,0,1,28.92,20.4Zm13,0-2.43,5.52a.4.4,0,0,1-.37.23H37.91a.38.38,0,0,1-.37-.23l-1.16-2.63-.31-.76c-.11.27-.22.53-.33.77l-1.22,2.63a.41.41,0,0,1-.37.22H32.91a.4.4,0,0,1-.38-.23l-2.28-5.53a.32.32,0,0,1,.05-.32.43.43,0,0,1,.33-.15H32a.39.39,0,0,1,.38.25l1,2.8c.09.24.17.46.24.68l.28-.68,1.23-2.82a.4.4,0,0,1,.38-.23h1.15a.4.4,0,0,1,.38.23l1.17,2.76c.1.25.2.48.28.7.07-.21.16-.43.25-.68l1.08-2.77a.4.4,0,0,1,.38-.24h1.35a.45.45,0,0,1,.34.15A.33.33,0,0,1,42,20.4Z"/><path class="cls-4" d="M8,17.15a15.52,15.52,0,0,1,1.55-3,1.17,1.17,0,0,0,.27.05h2.74a28.32,28.32,0,0,0-.71,2.92h3a24.35,24.35,0,0,1,.82-2.92H30.3a24.35,24.35,0,0,1,.82,2.92h3a28.32,28.32,0,0,0-.71-2.92h2.74a1.37,1.37,0,0,0,.28-.05,16.07,16.07,0,0,1,1.54,3h3.1a19,19,0,0,0-36.14,0Zm26-5.84H32.26A16.81,16.81,0,0,0,31,9.09,15.82,15.82,0,0,1,34,11.31ZM23,6.92c2.27,0,4.36,1.69,5.94,4.39H17.06C18.64,8.61,20.73,6.92,23,6.92ZM15,9.09a16.81,16.81,0,0,0-1.24,2.22H12A15.82,15.82,0,0,1,15,9.09Z"/><path class="cls-4" d="M38,28.85a16.07,16.07,0,0,1-1.54,3,2.74,2.74,0,0,0-.28-.05H33.4a26,26,0,0,0,.72-2.92h-3a24.35,24.35,0,0,1-.82,2.92H15.7a24.35,24.35,0,0,1-.82-2.92h-3a26,26,0,0,0,.72,2.92H9.85a2.16,2.16,0,0,0-.27.05,15.52,15.52,0,0,1-1.55-3H4.93a19,19,0,0,0,36.14,0ZM12,34.69h1.74A16.81,16.81,0,0,0,15,36.91,15.82,15.82,0,0,1,12,34.69Zm11,4.39c-2.27,0-4.36-1.69-5.94-4.39H28.93C27.36,37.39,25.27,39.08,23,39.08Zm8-2.17a16.81,16.81,0,0,0,1.24-2.22H34A15.82,15.82,0,0,1,31,36.91Z"/><path class="cls-5" d="M44.5,36.49V34.37L42,34a6.27,6.27,0,0,0-.69-1.67l1.47-2.08-1.5-1.5L39.17,30.2a5.8,5.8,0,0,0-1.68-.7L37.05,27H34.92l-.41,2.49a6.26,6.26,0,0,0-1.69.69l-2.07-1.47-1.5,1.5,1.45,2.06A6.28,6.28,0,0,0,30,34l-2.5.41v2.12l2.5.43a5.75,5.75,0,0,0,.7,1.69l-1.47,2,1.5,1.5,2.08-1.45a6.26,6.26,0,0,0,1.69.69l.42,2.49h2.13l.44-2.49a6.65,6.65,0,0,0,1.69-.71l2.09,1.47,1.5-1.5L41.28,38.6A6.2,6.2,0,0,0,42,36.92ZM36,38.39a2.95,2.95,0,1,1,3-2.94A2.94,2.94,0,0,1,36,38.39Z"/><ellipse class="cls-1" cx="36" cy="35.45" rx="2.7" ry="2.69"/></svg>