<svg id="Layer_1" data-name="Layer 1" xmlns="http://www.w3.org/2000/svg" viewBox="0 0 48 48"><defs><style>.cls-1{fill:#ababab;}.cls-2{fill:#efeeee;}.cls-3{fill:#cb5641;}.cls-4{fill:#3f4d54;}.cls-5{fill:#fff;}.cls-6{fill:#8d9aad;stroke:#000;}</style></defs><title>xml1</title><polygon class="cls-1" points="30.89 32.07 41.48 32.07 30.89 42.68 30.89 32.07"/><polygon class="cls-2" points="9.13 5.79 39.21 5.79 39.21 32.71 29.71 42.21 9.13 42.21 9.13 5.79"/><rect class="cls-3" x="2.79" y="13.71" width="25.33" height="12.67"/><path class="cls-4" d="M8.33,5v7.92H2V27.17H8.33V43H30.5L40,33.5V5ZM3.58,14.5H27.33V25.58H3.58ZM30.5,40.76V33.5h7.26Zm7.92-8.84h-9.5v9.5h-19V27.17h19V12.92h-19V6.58h28.5Z"/><path class="cls-5" d="M8.05,16.66l.88,2.2.86-2.2h1.49L9.71,20l1.69,3.43H9.86l-1-2.3-1,2.3H6.41L8.1,20,6.55,16.66Z"/><path class="cls-5" d="M14.75,16.66l1,4.79h0l1-4.79h2v6.79H17.49V18h0l-1.21,5.42H15.2L14,18h0v5.42H12.72V16.66Z"/><path class="cls-5" d="M20.48,16.66h1.37v5.66h2.42v1.13H20.48Z"/><path class="cls-6" d="M43.39,36.05V33.92l-2.51-.41a6.2,6.2,0,0,0-.69-1.68l1.47-2.1-1.5-1.51-2.06,1.5a5.59,5.59,0,0,0-1.67-.7L36,26.5H33.87L33.47,29a6.07,6.07,0,0,0-1.68.69l-2.06-1.48-1.49,1.51,1.44,2.08a6.22,6.22,0,0,0-.7,1.7l-2.48.41v2.13l2.48.44a6.28,6.28,0,0,0,.7,1.69l-1.46,2.07,1.49,1.5,2.07-1.46a5.92,5.92,0,0,0,1.68.7l.41,2.51H36L36.43,41a6,6,0,0,0,1.67-.7l2.09,1.47,1.49-1.5-1.49-2.08a6.2,6.2,0,0,0,.69-1.68ZM35,38a3,3,0,1,1,2.94-3A3,3,0,0,1,35,38Z"/><ellipse class="cls-5" cx="34.95" cy="35" rx="2.68" ry="2.71"/></svg>