<svg id="Layer_1" data-name="Layer 1" xmlns="http://www.w3.org/2000/svg" viewBox="0 0 48 48"><defs><style>.cls-1{fill:#efeeee;}.cls-2{fill:#ababab;}.cls-3{fill:#cb5641;}.cls-4{fill:#3f4d54;}.cls-5{fill:#fff;}.cls-6{fill:#8d9aad;stroke:#000;}.cls-7{fill:none;stroke:#8d9aad;stroke-miterlimit:10;stroke-width:2px;}</style></defs><title>xml2</title><polygon class="cls-1" points="10.82 6.92 38.3 6.92 38.3 31.64 29.62 40.36 10.82 40.36 10.82 6.92"/><polygon class="cls-2" points="29.62 31.64 38.3 31.64 29.62 40.36 29.62 31.64"/><rect class="cls-3" x="5.04" y="14.19" width="22" height="11.63"/><path class="cls-4" d="M10.16,6.75v6.87H4.66V26h5.5V39.75H29.41l8.25-8.25V6.75ZM6,15H26.66v9.62H6ZM29.41,37.81V31.5h6.3Zm6.87-7.69H28v8.26H11.53V26H28V13.62H11.53V8.12H36.28Z"/><path class="cls-5" d="M9.91,16.88l.77,1.9.74-1.9h1.3l-1.37,2.91,1.47,3H11.48l-.85-2-.84,2H8.49l1.47-3L8.6,16.88Z"/><path class="cls-5" d="M15.73,16.88,16.57,21h0l.85-4.16H19.2v5.89H18.11v-4.7h0L17,22.77h-.92l-1.05-4.7h0v4.7H14V16.88Z"/><path class="cls-5" d="M20.7,16.88h1.2V21.8H24v1H20.7Z"/><path class="cls-6" d="M42.84,33.73v-2l-2.38-.39a5.92,5.92,0,0,0-.65-1.58l1.39-2-1.42-1.42-2,1.41a5.57,5.57,0,0,0-1.59-.66l-.41-2.37h-2l-.39,2.36a5.85,5.85,0,0,0-1.59.65l-2-1.39-1.41,1.42,1.37,1.95a6.09,6.09,0,0,0-.67,1.6l-2.35.39v2l2.35.42a5.65,5.65,0,0,0,.67,1.6l-1.39,1.94,1.41,1.41,2-1.37a5.69,5.69,0,0,0,1.59.66l.4,2.36h2l.42-2.37a5.94,5.94,0,0,0,1.58-.66l2,1.38,1.41-1.41-1.41-2a5.78,5.78,0,0,0,.65-1.58Zm-8,1.81a2.79,2.79,0,1,1,2.79-2.79A2.79,2.79,0,0,1,34.84,35.54Z"/><ellipse class="cls-5" cx="34.84" cy="32.75" rx="2.54" ry="2.55"/><rect class="cls-7" x="1" y="1" width="46" height="46" rx="4" ry="4"/></svg>