<svg id="Layer_1" data-name="Layer 1" xmlns="http://www.w3.org/2000/svg" viewBox="0 0 48 48"><defs><style>.cls-1{fill:none;stroke:#8d9aad;stroke-miterlimit:10;stroke-width:2px;}.cls-2{fill:#efeeee;}.cls-3{fill:#ababab;}.cls-4{fill:#009688;}.cls-5{fill:#3f4d54;}.cls-6{fill:#8d9aad;stroke:#000;}.cls-7,.cls-8{fill:#fff;}.cls-8{font-size:7px;font-family:OpenSans-Extrabold, Open Sans;font-weight:700;}</style></defs><title>ascii2</title><rect class="cls-1" x="1" y="1" width="46" height="46" rx="4" ry="4"/><polygon class="cls-2" points="10.82 6.46 38.3 6.46 38.3 31.18 29.62 39.9 10.82 39.9 10.82 6.46"/><polygon class="cls-3" points="30.62 31.18 39.3 31.18 30.62 39.9 30.62 31.18"/><rect class="cls-4" x="6.04" y="13.73" width="23.14" height="11.63"/><path class="cls-5" d="M10.81,7v6.88H5.31V26.29h5.5V40H30.06l8.25-8.25V7ZM6.69,15.29H27.31v9.63H6.69ZM30.06,38.1V31.79h6.31Zm6.88-7.68H28.69v8.25H12.19V26.29h16.5V13.92H12.19V8.42H36.94Z"/><path class="cls-6" d="M43.5,34V32l-2.38-.4a5.92,5.92,0,0,0-.65-1.58l1.38-2-1.41-1.42-1.95,1.41a5.57,5.57,0,0,0-1.59-.66L36.48,25h-2L34.1,27.4a5.72,5.72,0,0,0-1.59.65l-1.95-1.39-1.41,1.42,1.37,2a5.59,5.59,0,0,0-.67,1.59L27.5,32v2l2.35.41a5.63,5.63,0,0,0,.66,1.6L29.13,38l1.41,1.42,2-1.38a5.69,5.69,0,0,0,1.59.66L34.48,41h2l.42-2.37A5.87,5.87,0,0,0,38.49,38l2,1.39L41.88,38l-1.41-2a5.66,5.66,0,0,0,.65-1.58Zm-8,1.8A2.79,2.79,0,1,1,38.29,33,2.79,2.79,0,0,1,35.5,35.83Z"/><ellipse class="cls-7" cx="35.5" cy="33.04" rx="2.54" ry="2.55"/><text class="cls-8" transform="translate(7.74 22.15)">ASCII</text></svg>