<svg id="Layer_1" data-name="Layer 1" xmlns="http://www.w3.org/2000/svg" viewBox="0 0 48 48"><defs><style>.cls-1{fill:#efeeee;}.cls-2{fill:#009688;}.cls-3{fill:#3f4d54;}.cls-4{font-size:8.14px;font-family:OpenSans-Extrabold, Open Sans;font-weight:700;}.cls-4,.cls-7{fill:#fff;}.cls-5{fill:#ababab;}.cls-6{fill:#8d9aad;stroke:#000;}</style></defs><title>ascii1</title><polygon class="cls-1" points="9.49 5.79 39.22 5.79 39.22 32.71 29.83 42.21 9.49 42.21 9.49 5.79"/><rect class="cls-2" x="3.23" y="13.71" width="25.04" height="12.67"/><path class="cls-3" d="M8.71,5v7.92H2.45V27.17H8.71V43h21.9L40,33.5V5ZM4,14.5H27.48V25.58H4Zm26.6,26.26V33.5h7.18Zm7.83-8.84H29.05v9.5H10.27V27.17H29.05V12.92H10.27V6.58H38.44Z"/><text class="cls-4" transform="translate(4.76 22.76) scale(0.99 1)">ASCII</text><polygon class="cls-5" points="29.39 31.57 39.98 31.57 29.39 42.18 29.39 31.57"/><path class="cls-6" d="M43.39,36.05V33.92l-2.51-.41a6.2,6.2,0,0,0-.69-1.68l1.47-2.1-1.5-1.51-2.06,1.5a5.59,5.59,0,0,0-1.67-.7L36,26.5H33.87L33.47,29a6.07,6.07,0,0,0-1.68.69l-2.06-1.48-1.49,1.51,1.44,2.08a6.22,6.22,0,0,0-.7,1.7l-2.48.41v2.13l2.48.44a6.28,6.28,0,0,0,.7,1.69l-1.46,2.07,1.49,1.5,2.07-1.46a5.92,5.92,0,0,0,1.68.7l.41,2.51H36L36.43,41a6,6,0,0,0,1.67-.7l2.09,1.47,1.49-1.5-1.49-2.08a6.2,6.2,0,0,0,.69-1.68ZM35,38a3,3,0,1,1,2.94-3A3,3,0,0,1,35,38Z"/><ellipse class="cls-7" cx="34.95" cy="35" rx="2.68" ry="2.71"/></svg>