<svg id="Layer_1" data-name="Layer 1" xmlns="http://www.w3.org/2000/svg" viewBox="0 0 48 48"><defs><style>.cls-1{fill:none;stroke:#8d9aad;stroke-miterlimit:10;stroke-width:2px;}.cls-2{fill:#fff;}.cls-3{fill:#8bc53f;}.cls-4{fill:#3f4d54;}</style></defs><title>initiate2</title><rect class="cls-1" x="1" y="1" width="46" height="46" rx="4" ry="4"/><rect class="cls-2" x="16.62" y="10.11" width="13.03" height="13.03"/><ellipse class="cls-3" cx="23.93" cy="31.5" rx="8.81" ry="8.44"/><path class="cls-4" d="M32.05,7.5H16a1.25,1.25,0,0,0-1.27,1.22V39.28A1.25,1.25,0,0,0,16,40.5h16.1a1.25,1.25,0,0,0,1.27-1.22V8.72A1.25,1.25,0,0,0,32.05,7.5ZM24,37.2A4.19,4.19,0,1,1,28.38,33,4.33,4.33,0,0,1,24,37.2Zm5.73-5.39A6,6,0,0,0,24,27.15a6,6,0,0,0-5.73,4.66c-.89-3.32,2.37-6.3,5.68-6.34,2.73,0,5.62,1.93,5.88,4.67,0-.09.05.35,0,0a4.09,4.09,0,0,1-.09,1.67ZM19.64,18.34a4.37,4.37,0,0,1,8.74,0,4.37,4.37,0,0,1-8.74,0Zm10.1-1.2A6,6,0,0,0,24,12.49a6,6,0,0,0-5.73,4.65c-.89-3.32,2.37-6.3,5.68-6.34,2.73,0,5.62,1.93,5.88,4.68,0-.09.05.35,0,0a4,4,0,0,1-.09,1.66Zm0,0"/></svg>