<svg id="Layer_1" data-name="Layer 1" xmlns="http://www.w3.org/2000/svg" viewBox="0 0 16 16"><defs><style>.cls-1{fill:#316cb3;}.cls-2{fill:#262d33;}.cls-3{fill:#fff;}.cls-4{fill:#e24b4b;}</style></defs><title>confer-late</title><ellipse class="cls-1" cx="9.59" cy="6.37" rx="2.68" ry="2.63"/><path class="cls-1" d="M11.66,9.44h-.73a.71.71,0,0,0-.48.19l-.86.85-.87-.85a.67.67,0,0,0-.47-.19H7.52A1.32,1.32,0,0,0,6.18,10.6l-.61,4.66a.67.67,0,0,0,.67.74h6.7a.68.68,0,0,0,.5-.22.62.62,0,0,0,.16-.52L13,10.62A1.33,1.33,0,0,0,11.66,9.44Z"/><ellipse class="cls-1" cx="3.12" cy="6.9" rx="2.08" ry="2.04"/><path class="cls-1" d="M4.74,9.28H4.17a.54.54,0,0,0-.37.15l-.68.66-.67-.66a.56.56,0,0,0-.37-.15H1.51a1,1,0,0,0-1,.91L0,13.81a.54.54,0,0,0,.13.4.52.52,0,0,0,.39.17H5.73a.52.52,0,0,0,.39-.17.49.49,0,0,0,.12-.4L5.77,10.2A1,1,0,0,0,4.74,9.28Z"/><path class="cls-2" d="M4.54,3.9A2.1,2.1,0,0,1,2.42,2,2.12,2.12,0,0,1,4.67,0h1.5A2.11,2.11,0,0,1,8.42,2,2.05,2.05,0,0,1,6.55,3.87V5.2ZM4.67.65A1.41,1.41,0,0,0,3.17,2a1.41,1.41,0,0,0,1.5,1.3H4.8l1,.65V3.25h.37A1.41,1.41,0,0,0,7.67,2,1.41,1.41,0,0,0,6.17.65Z"/><circle class="cls-3" cx="13" cy="13" r="3"/><path class="cls-2" d="M12.91,9.81A3.08,3.08,0,1,0,16,12.89,3.08,3.08,0,0,0,12.91,9.81Zm0,5.75a2.67,2.67,0,1,1,2.67-2.67A2.67,2.67,0,0,1,12.91,15.56Z"/><path class="cls-4" d="M12.83,10.49v2.45h2.44a2.45,2.45,0,0,0-2.44-2.45Zm0,0"/><rect class="cls-2" x="12.83" y="14.57" width="0.44" height="0.72"/><rect class="cls-2" x="10.56" y="12.6" width="0.73" height="0.55"/><path class="cls-2" d="M14.56,13.9l.4.23a1.14,1.14,0,0,0,.1-.19l-.39-.23Z"/><path class="cls-2" d="M13.84,14.54l.27.48.19-.12L14,14.44Z"/><rect class="cls-2" x="11.63" y="14.62" width="0.55" height="0.22" transform="translate(-6.81 17.61) rotate(-59.8)"/><rect class="cls-2" x="10.85" y="13.84" width="0.55" height="0.22" transform="translate(-5.49 7.45) rotate(-30.08)"/><rect class="cls-2" x="11.01" y="11.52" width="0.22" height="0.55" transform="translate(-4.65 15.53) rotate(-60)"/><rect class="cls-2" x="11.8" y="10.74" width="0.22" height="0.55" transform="translate(-3.92 7.48) rotate(-30.18)"/><path class="cls-2" d="M15,10.1l.4.22a.13.13,0,0,0,.17-.05l.17-.31a.13.13,0,0,0,0-.17l-1.72-.91a.13.13,0,0,0-.17,0l-.16.31a.11.11,0,0,0,.05.16l.48.26-.21.39.83.45Z"/></svg>