<svg id="Layer_1" data-name="Layer 1" xmlns="http://www.w3.org/2000/svg" viewBox="0 0 16 16"><defs><style>.cls-1{fill:#262d33;}.cls-2{fill:#316cb3;}.cls-3{fill:#fff;}</style></defs><title>confer-urgent</title><path class="cls-1" d="M4.51,3.9A2.1,2.1,0,0,1,2.39,2,2.12,2.12,0,0,1,4.64,0h1.5A2.12,2.12,0,0,1,8.39,2,2.06,2.06,0,0,1,6.51,3.87V5.2ZM4.64.65A1.41,1.41,0,0,0,3.14,2a1.41,1.41,0,0,0,1.5,1.3h.12l1,.65V3.25h.38A1.41,1.41,0,0,0,7.64,2,1.41,1.41,0,0,0,6.14.65Z"/><ellipse class="cls-2" cx="9.59" cy="6.37" rx="2.68" ry="2.63"/><path class="cls-2" d="M11.66,9.44h-.73a.71.71,0,0,0-.48.19l-.86.85-.87-.85a.67.67,0,0,0-.47-.19H7.52A1.32,1.32,0,0,0,6.18,10.6l-.61,4.66a.67.67,0,0,0,.67.74h6.7a.68.68,0,0,0,.5-.22.62.62,0,0,0,.16-.52L13,10.62A1.33,1.33,0,0,0,11.66,9.44Z"/><ellipse class="cls-2" cx="3.12" cy="6.9" rx="2.08" ry="2.04"/><path class="cls-2" d="M4.74,9.28H4.17a.54.54,0,0,0-.37.15l-.68.66-.67-.66a.56.56,0,0,0-.37-.15H1.51a1,1,0,0,0-1,.91L0,13.81a.54.54,0,0,0,.13.4.52.52,0,0,0,.39.17H5.73a.52.52,0,0,0,.39-.17.49.49,0,0,0,.12-.4L5.77,10.2A1,1,0,0,0,4.74,9.28Z"/><circle class="cls-3" cx="13.08" cy="14.25" r="1.75"/><path class="cls-1" d="M15.58,13.5a1.31,1.31,0,0,0-.06-.27A4,4,0,0,1,16,11a3.9,3.9,0,0,0-1.6.49.56.56,0,0,1-.05-.08,5.74,5.74,0,0,1,.33-1.76,6.36,6.36,0,0,0-1,.59,2,2,0,0,1,0-1.72c-2.17,1.56-3.47,3.3-3.47,4.7,0,1.09.27,2.8,2.91,2.8,1.55,0,2.34-.6,2.49-1.75l0,0c0-.06,0-.1,0-.15A4.55,4.55,0,0,0,15.58,13.5Zm-1.3,1.24c-.17.29-.25.38-1.35.41s-1.29-.2-1.49-.58a1.3,1.3,0,0,1,.11-1.65c0,.08-.27.76.79,1.32-.52-.64.42-1.42.77-1.77a5.1,5.1,0,0,0,.37,1.77,3,3,0,0,0,1-1.62A2.19,2.19,0,0,1,14.28,14.74Z"/></svg>