<svg id="Layer_1" data-name="Layer 1" xmlns="http://www.w3.org/2000/svg" viewBox="0 0 16 16"><defs><style>.cls-1{fill:#262d33;}.cls-2{fill:#316cb3;}</style></defs><title>confer</title><path class="cls-1" d="M5.7,3.9A2.1,2.1,0,0,1,3.58,2,2.12,2.12,0,0,1,5.83,0h1.5A2.12,2.12,0,0,1,9.58,2,2.05,2.05,0,0,1,7.71,3.87V5.2ZM5.83.65A1.41,1.41,0,0,0,4.33,2a1.41,1.41,0,0,0,1.5,1.3H6L7,3.9V3.25h.37A1.41,1.41,0,0,0,8.83,2,1.41,1.41,0,0,0,7.33.65Z"/><ellipse class="cls-2" cx="10.78" cy="6.37" rx="2.68" ry="2.63"/><path class="cls-2" d="M12.86,9.44h-.74a.7.7,0,0,0-.47.19l-.87.85-.86-.85a.71.71,0,0,0-.48-.19H8.71A1.32,1.32,0,0,0,7.38,10.6l-.61,4.66a.65.65,0,0,0,.16.52.68.68,0,0,0,.5.22h6.7a.69.69,0,0,0,.51-.22.65.65,0,0,0,.16-.52l-.61-4.64A1.32,1.32,0,0,0,12.86,9.44Z"/><ellipse class="cls-2" cx="4.32" cy="6.9" rx="2.08" ry="2.04"/><path class="cls-2" d="M5.93,9.28H5.36A.56.56,0,0,0,5,9.43l-.67.66-.67-.66a.56.56,0,0,0-.37-.15H2.71a1,1,0,0,0-1,.91L1.2,13.81a.5.5,0,0,0,.13.4.51.51,0,0,0,.39.17h5.2a.52.52,0,0,0,.39-.17.5.5,0,0,0,.13-.4L7,10.2A1,1,0,0,0,5.93,9.28Z"/></svg>