<svg id="Layer_1" data-name="Layer 1" xmlns="http://www.w3.org/2000/svg" xmlns:xlink="http://www.w3.org/1999/xlink" viewBox="0 0 48 48"><defs><style>.cls-1,.cls-4,.cls-8{clip-path:url(#clip-path);}.cls-1{filter:url(#luminosity-noclip);}.cls-2{fill:none;}.cls-3{isolation:isolate;}.cls-5{clip-path:url(#clip-path-3);}.cls-6{clip-path:url(#clip-path-4);}.cls-7{fill:url(#linear-gradient);}.cls-8{filter:url(#luminosity-noclip-2);}.cls-10,.cls-9{clip-path:url(#clip-path-9);}.cls-9{filter:url(#luminosity-noclip-3);}.cls-11{clip-path:url(#clip-path-11);}.cls-12{clip-path:url(#clip-path-12);}.cls-13{fill:url(#linear-gradient-3);}.cls-14,.cls-15{clip-path:url(#clip-path-13);}.cls-14{filter:url(#luminosity-noclip-4);}.cls-16{clip-path:url(#clip-path-15);}.cls-17{clip-path:url(#clip-path-16);}.cls-18{fill:url(#linear-gradient-4);}.cls-19,.cls-20{clip-path:url(#clip-path-17);}.cls-19{filter:url(#luminosity-noclip-5);}.cls-21{clip-path:url(#clip-path-19);}.cls-22{clip-path:url(#clip-path-20);}.cls-23{fill:url(#linear-gradient-5);}.cls-24,.cls-25{clip-path:url(#clip-path-21);}.cls-24{filter:url(#luminosity-noclip-6);}.cls-26{clip-path:url(#clip-path-23);}.cls-27{clip-path:url(#clip-path-24);}.cls-28{fill:url(#linear-gradient-6);}.cls-29,.cls-30{clip-path:url(#clip-path-25);}.cls-29{filter:url(#luminosity-noclip-7);}.cls-31{clip-path:url(#clip-path-27);}.cls-32{clip-path:url(#clip-path-28);}.cls-33{fill:url(#linear-gradient-7);}.cls-34,.cls-35{clip-path:url(#clip-path-29);}.cls-34{filter:url(#luminosity-noclip-8);}.cls-36{clip-path:url(#clip-path-31);}.cls-37{clip-path:url(#clip-path-32);}.cls-38{fill:url(#linear-gradient-8);}.cls-39,.cls-40{clip-path:url(#clip-path-33);}.cls-39{filter:url(#luminosity-noclip-9);}.cls-41{clip-path:url(#clip-path-35);}.cls-42{clip-path:url(#clip-path-36);}.cls-43{fill:url(#linear-gradient-9);}.cls-44{fill:#efeeee;}.cls-45{fill:#ababab;}.cls-46{fill:#010101;}.cls-47{fill:#8d9aad;stroke:#000;}.cls-48{fill:#fff;}.cls-49{clip-path:url(#clip-path-37);}.cls-50{clip-path:url(#clip-path-38);}.cls-51{fill:url(#linear-gradient-10);}.cls-52{clip-path:url(#clip-path-39);}.cls-53{clip-path:url(#clip-path-40);}.cls-54{fill:url(#linear-gradient-11);}.cls-55{fill:#005999;}.cls-56{mask:url(#mask);}.cls-57{clip-path:url(#clip-path-41);}.cls-58{clip-path:url(#clip-path-42);}.cls-59{clip-path:url(#clip-path-43);}.cls-60{fill:url(#linear-gradient-12);}.cls-61{mask:url(#mask-2);}.cls-62{clip-path:url(#clip-path-44);}.cls-63{fill:#0091be;}.cls-64{fill:#006cb6;}.cls-65{clip-path:url(#clip-path-45);}.cls-66{clip-path:url(#clip-path-46);}.cls-67{fill:url(#linear-gradient-13);}.cls-68{clip-path:url(#clip-path-47);}.cls-69{clip-path:url(#clip-path-48);}.cls-70{fill:url(#linear-gradient-14);}.cls-71{mask:url(#mask-3);}.cls-72{clip-path:url(#clip-path-49);}.cls-73{fill:#00b8f1;}.cls-74{fill:#0078ae;}.cls-75{fill:#005e9c;}.cls-76{mask:url(#mask-4);}.cls-77{clip-path:url(#clip-path-50);}.cls-78{clip-path:url(#clip-path-51);}.cls-79{clip-path:url(#clip-path-52);}.cls-80{fill:url(#linear-gradient-15);}.cls-81{mask:url(#mask-5);}.cls-82{clip-path:url(#clip-path-53);}.cls-83{fill:#00a0e3;}.cls-84{fill:#0082c5;}.cls-85{clip-path:url(#clip-path-54);}.cls-86{clip-path:url(#clip-path-55);}.cls-87{fill:url(#linear-gradient-16);}.cls-88{fill:#007dc4;}.cls-89{mask:url(#mask-6);}.cls-90{clip-path:url(#clip-path-56);}.cls-91{clip-path:url(#clip-path-57);}.cls-92{clip-path:url(#clip-path-58);}.cls-93{fill:url(#linear-gradient-17);}.cls-94{clip-path:url(#clip-path-59);}.cls-95{clip-path:url(#clip-path-60);}.cls-96{fill:url(#linear-gradient-18);}.cls-97{clip-path:url(#clip-path-61);}.cls-98{clip-path:url(#clip-path-62);}.cls-99{fill:url(#linear-gradient-19);}.cls-100{clip-path:url(#clip-path-63);}.cls-101{clip-path:url(#clip-path-64);}.cls-102{fill:url(#linear-gradient-20);}.cls-103{mask:url(#mask-7);}.cls-104{clip-path:url(#clip-path-65);}.cls-105{clip-path:url(#clip-path-66);}.cls-106{clip-path:url(#clip-path-67);}.cls-107{fill:url(#linear-gradient-21);}.cls-108{fill:#009ade;}.cls-109{fill:#0060ae;}.cls-110{fill:#0064b0;}.cls-111{fill:#0062a7;}.cls-112{clip-path:url(#clip-path-68);}.cls-113{clip-path:url(#clip-path-69);}.cls-114{fill:url(#linear-gradient-22);}.cls-115{mask:url(#mask-8);}.cls-116{clip-path:url(#clip-path-70);}.cls-117{fill:#6dc3e8;}.cls-118{fill:#37bde9;}.cls-119{clip-path:url(#clip-path-71);}.cls-120{clip-path:url(#clip-path-72);}.cls-121{fill:url(#linear-gradient-23);}.cls-122{clip-path:url(#clip-path-73);}.cls-123{clip-path:url(#clip-path-74);}.cls-124{fill:url(#linear-gradient-24);}.cls-125{mask:url(#mask-9);}.cls-126{clip-path:url(#clip-path-75);}.cls-127{clip-path:url(#clip-path-76);}.cls-128{clip-path:url(#clip-path-77);}.cls-129{fill:url(#linear-gradient-25);}.cls-130{fill:#231f20;}</style><clipPath id="clip-path"><rect class="cls-2" x="11.74" y="8.38" width="16.87" height="5.9"/></clipPath><clipPath id="clip-path-3"><rect class="cls-2" x="11.74" y="8.38" width="16.86" height="5.9"/></clipPath><clipPath id="clip-path-4"><rect class="cls-2" x="10.86" y="8.4" width="17.74" height="17.7"/></clipPath><linearGradient id="linear-gradient" x1="-116" y1="-290" x2="-115" y2="-290" gradientTransform="matrix(0, 5.9, 5.91, 0, 1735.07, 692.97)" gradientUnits="userSpaceOnUse"><stop offset="0" stop-color="#231f20"/><stop offset="0.15" stop-color="#464344"/><stop offset="0.74" stop-color="#cac9c9"/><stop offset="1" stop-color="#fff"/></linearGradient><clipPath id="clip-path-9"><rect class="cls-2" x="5.31" y="8.04" width="16.86" height="14.32"/></clipPath><clipPath id="clip-path-11"><rect class="cls-2" x="5.3" y="8.04" width="16.86" height="14.32"/></clipPath><clipPath id="clip-path-12"><rect class="cls-2" x="5.31" y="8.04" width="16.86" height="14.32"/></clipPath><linearGradient id="linear-gradient-3" x1="-116" y1="-290" x2="-115" y2="-290" gradientTransform="matrix(0, -14.32, -14.35, 0, -4147.17, -1638.64)" gradientUnits="userSpaceOnUse"><stop offset="0" stop-color="#231f20"/><stop offset="0.46" stop-color="#231f20"/><stop offset="0.54" stop-color="#464344"/><stop offset="0.86" stop-color="#cac9c9"/><stop offset="1" stop-color="#fff"/></linearGradient><clipPath id="clip-path-13"><rect class="cls-2" x="23.71" y="8.2" width="16.87" height="10.28"/></clipPath><clipPath id="clip-path-15"><rect class="cls-2" x="23.71" y="8.2" width="16.86" height="10.28"/></clipPath><clipPath id="clip-path-16"><rect class="cls-2" x="9.61" y="8.15" width="30.9" height="30.84"/></clipPath><linearGradient id="linear-gradient-4" x1="-116" y1="-290" x2="-115" y2="-290" gradientTransform="matrix(0, 10.28, 10.3, 0, 3019.28, 1200.61)" gradientUnits="userSpaceOnUse"><stop offset="0" stop-color="#333132"/><stop offset="0.73" stop-color="#fff"/><stop offset="1" stop-color="#fff"/></linearGradient><clipPath id="clip-path-17"><rect class="cls-2" x="1.32" y="7.47" width="16.86" height="14.32"/></clipPath><clipPath id="clip-path-19"><rect class="cls-2" x="1.32" y="7.47" width="16.86" height="14.32"/></clipPath><clipPath id="clip-path-20"><rect class="cls-2" x="1.38" y="7.53" width="16.86" height="14.32"/></clipPath><linearGradient id="linear-gradient-5" gradientTransform="matrix(0, -14.32, -14.35, 0, -4150.82, -1639.04)" xlink:href="#linear-gradient"/><clipPath id="clip-path-21"><rect class="cls-2" x="3.65" y="9.72" width="12.76" height="15"/></clipPath><clipPath id="clip-path-23"><polygon class="cls-2" points="3.65 21.31 9.76 24.72 16.41 13.13 10.3 9.72 3.65 21.31"/></clipPath><clipPath id="clip-path-24"><polygon class="cls-2" points="22.88 13.42 -10.04 72.17 -68.92 39.3 -36.01 -19.44 22.88 13.42"/></clipPath><linearGradient id="linear-gradient-6" x1="-116" y1="-290" x2="-115" y2="-290" gradientTransform="matrix(-10.97, 19.58, 19.62, 10.95, 4429.91, 5459.47)" gradientUnits="userSpaceOnUse"><stop offset="0" stop-color="#231f20"/><stop offset="0.02" stop-color="#4c494a"/><stop offset="0.05" stop-color="#767374"/><stop offset="0.09" stop-color="#9b9999"/><stop offset="0.12" stop-color="#bab9b9"/><stop offset="0.16" stop-color="#d3d2d3"/><stop offset="0.2" stop-color="#e7e6e6"/><stop offset="0.24" stop-color="#f5f4f4"/><stop offset="0.3" stop-color="#fdfdfd"/><stop offset="0.4" stop-color="#fff"/><stop offset="1" stop-color="#fff"/></linearGradient><clipPath id="clip-path-25"><rect class="cls-2" x="24.18" y="7.44" width="16.87" height="5.86"/></clipPath><clipPath id="clip-path-27"><rect class="cls-2" x="24.18" y="7.44" width="16.86" height="5.86"/></clipPath><clipPath id="clip-path-28"><rect class="cls-2" x="23.42" y="7.45" width="17.63" height="17.59"/></clipPath><linearGradient id="linear-gradient-7" gradientTransform="matrix(0, 5.86, 5.88, 0, 1736.8, 687.74)" xlink:href="#linear-gradient"/><clipPath id="clip-path-29"><rect class="cls-2" x="12.19" y="8.25" width="7.16" height="1.65"/></clipPath><clipPath id="clip-path-31"><rect class="cls-2" x="12.19" y="8.25" width="7.16" height="1.65"/></clipPath><clipPath id="clip-path-32"><rect class="cls-2" x="12.13" y="4.91" width="7.16" height="4.94"/></clipPath><linearGradient id="linear-gradient-8" x1="-116" y1="-290" x2="-115" y2="-290" gradientTransform="matrix(0, -1.65, -1.65, 0, -462.78, -181.16)" gradientUnits="userSpaceOnUse"><stop offset="0" stop-color="#fff"/><stop offset="0.16" stop-color="#f8f8f8"/><stop offset="0.39" stop-color="#e3e4e5"/><stop offset="0.67" stop-color="#c2c3c5"/><stop offset="0.99" stop-color="#949699"/><stop offset="1" stop-color="#939598"/></linearGradient><clipPath id="clip-path-33"><rect class="cls-2" x="20.29" y="9.36" width="16.87" height="9.24"/></clipPath><clipPath id="clip-path-35"><rect class="cls-2" x="20.3" y="9.36" width="16.86" height="9.24"/></clipPath><clipPath id="clip-path-36"><rect class="cls-2" x="20.3" y="-9.1" width="27.76" height="27.71"/></clipPath><linearGradient id="linear-gradient-9" gradientTransform="matrix(0, -9.24, -9.25, 0, -2654.96, -1052.69)" xlink:href="#linear-gradient"/><clipPath id="clip-path-37"><path class="cls-2" d="M17,10.89c1.08,3.32,1.5,9.24,4.68,9.24h0a3.68,3.68,0,0,0,.73-.07h0c-2.89-.67-3.24-6.53-5-9.56h0a5,5,0,0,0-.41.39"/></clipPath><clipPath id="clip-path-38"><rect class="cls-2" x="17.07" y="10.53" width="5.38" height="9.64"/></clipPath><linearGradient id="linear-gradient-10" x1="-116" y1="-290" x2="-115" y2="-290" gradientTransform="matrix(0, 14.37, 14.4, 0, 4194.74, 1675.26)" gradientUnits="userSpaceOnUse"><stop offset="0" stop-color="#0095da"/><stop offset="0.11" stop-color="#0095da"/><stop offset="0.18" stop-color="#0397db"/><stop offset="0.23" stop-color="#0e9fdf"/><stop offset="0.28" stop-color="#1face6"/><stop offset="0.33" stop-color="#37bef0"/><stop offset="0.35" stop-color="#44c8f5"/><stop offset="0.45" stop-color="#44c8f5"/><stop offset="0.47" stop-color="#40c4f2"/><stop offset="0.63" stop-color="#1d9dda"/><stop offset="0.76" stop-color="#0886cb"/><stop offset="0.85" stop-color="#007dc5"/><stop offset="1" stop-color="#007dc5"/></linearGradient><clipPath id="clip-path-39"><path class="cls-2" d="M17.45,10.5c1.76,3,2.11,8.89,5,9.56h0a4.32,4.32,0,0,0,.68-.19h0c-2.59-1.26-3.31-7-5.31-9.69h0c-.13.1-.25.21-.37.32"/></clipPath><clipPath id="clip-path-40"><rect class="cls-2" x="-21.22" y="10.15" width="44.29" height="44.2"/></clipPath><linearGradient id="linear-gradient-11" x1="-116" y1="-290" x2="-115" y2="-290" gradientTransform="matrix(0, 14.73, 14.76, 0, 4301.6, 1717.3)" gradientUnits="userSpaceOnUse"><stop offset="0" stop-color="#0078b9"/><stop offset="0.18" stop-color="#0078b9"/><stop offset="0.24" stop-color="#0087c7"/><stop offset="0.36" stop-color="#00abe6"/><stop offset="0.52" stop-color="#00abe6"/><stop offset="0.73" stop-color="#00ace9"/><stop offset="0.85" stop-color="#00aeef"/><stop offset="1" stop-color="#00aeef"/></linearGradient><filter id="luminosity-noclip" x="10.86" y="-16.44" width="44.96" height="42.55" filterUnits="userSpaceOnUse" color-interpolation-filters="sRGB"><feFlood flood-color="#fff" result="bg"/><feBlend in="SourceGraphic" in2="bg"/></filter><mask id="mask" x="10.86" y="-16.44" width="44.96" height="42.55" maskUnits="userSpaceOnUse"><g class="cls-1"><g class="cls-3"><g class="cls-4"><g class="cls-5"><g class="cls-6"><rect class="cls-7" x="10.86" y="8.4" width="17.74" height="17.7"/></g></g></g></g></g></mask><clipPath id="clip-path-41"><rect class="cls-2" x="20.56" y="8.7" width="5.39" height="10.01"/></clipPath><clipPath id="clip-path-42"><path class="cls-2" d="M25.16,18.7c.26-.21.53-.44.8-.69C24.85,14.7,24.45,8.7,21.25,8.7a4,4,0,0,0-.69.06c2.92.72,3.29,7.06,4.6,9.94"/></clipPath><clipPath id="clip-path-43"><rect class="cls-2" x="20.58" y="-16.44" width="35.24" height="35.17"/></clipPath><linearGradient id="linear-gradient-12" x1="-116" y1="-290" x2="-115" y2="-290" gradientTransform="matrix(0, -11.72, -11.75, 0, -3383.36, -1340.07)" gradientUnits="userSpaceOnUse"><stop offset="0" stop-color="#0066b3"/><stop offset="0.14" stop-color="#0079c1"/><stop offset="0.42" stop-color="#00a9e6"/><stop offset="0.5" stop-color="#00b9f2"/><stop offset="1" stop-color="#00b9f2"/></linearGradient><filter id="luminosity-noclip-2" x="10.86" y="8.38" width="17.74" height="17.72" filterUnits="userSpaceOnUse" color-interpolation-filters="sRGB"><feFlood flood-color="#fff" result="bg"/><feBlend in="SourceGraphic" in2="bg"/></filter><mask id="mask-2" x="10.86" y="8.38" width="17.74" height="17.72" maskUnits="userSpaceOnUse"><g class="cls-8"><g class="cls-3"><g class="cls-4"><g class="cls-5"><g class="cls-6"><rect class="cls-7" x="10.86" y="8.4" width="17.74" height="17.7"/></g></g></g></g></g></mask><clipPath id="clip-path-44"><rect class="cls-2" x="19.99" y="8.69" width="1.26" height="0.07"/></clipPath><clipPath id="clip-path-45"><path class="cls-2" d="M19.82,9c2.61,1.36,2.84,7.54,4.92,10h0l.42-.32h0c-1.31-2.88-1.68-9.22-4.6-9.94h0a4.79,4.79,0,0,0-.74.21"/></clipPath><clipPath id="clip-path-46"><rect class="cls-2" x="-20.79" y="8.81" width="45.98" height="45.89"/></clipPath><linearGradient id="linear-gradient-13" x1="-116" y1="-290" x2="-115" y2="-290" gradientTransform="matrix(0, 15.3, 15.33, 0, 4467.72, 1781.27)" gradientUnits="userSpaceOnUse"><stop offset="0" stop-color="#006cb3"/><stop offset="0.1" stop-color="#006cb3"/><stop offset="0.2" stop-color="#007ec1"/><stop offset="0.4" stop-color="#00abe6"/><stop offset="0.52" stop-color="#00abe6"/><stop offset="0.85" stop-color="#0097d9"/><stop offset="1" stop-color="#0097d9"/></linearGradient><clipPath id="clip-path-47"><path class="cls-2" d="M17.82,10.18c2,2.74,2.72,8.43,5.31,9.69h0A6.27,6.27,0,0,0,24.74,19h0c-2.08-2.51-2.31-8.69-4.92-10h0a6.69,6.69,0,0,0-2,1.21"/></clipPath><clipPath id="clip-path-48"><rect class="cls-2" x="17.86" y="9" width="6.96" height="10.9"/></clipPath><linearGradient id="linear-gradient-14" x1="-116" y1="-290" x2="-115" y2="-290" gradientTransform="matrix(0, 16.27, 16.3, 0, 4748.19, 1893.78)" gradientUnits="userSpaceOnUse"><stop offset="0" stop-color="#00487e"/><stop offset="0.11" stop-color="#00487e"/><stop offset="0.39" stop-color="#0087c7"/><stop offset="0.52" stop-color="#0087c7"/><stop offset="0.54" stop-color="#0082c2"/><stop offset="0.78" stop-color="#005598"/><stop offset="1" stop-color="#005598"/></linearGradient><filter id="luminosity-noclip-3" x="5.3" y="8.04" width="16.87" height="14.32" filterUnits="userSpaceOnUse" color-interpolation-filters="sRGB"><feFlood flood-color="#fff" result="bg"/><feBlend in="SourceGraphic" in2="bg"/></filter><mask id="mask-3" x="5.3" y="8.04" width="16.87" height="14.32" maskUnits="userSpaceOnUse"><g class="cls-9"><g class="cls-3"><g class="cls-10"><g class="cls-11"><g class="cls-12"><rect class="cls-13" x="5.31" y="8.04" width="16.86" height="14.32"/></g></g></g></g></g></mask><clipPath id="clip-path-49"><rect class="cls-2" x="14.73" y="10" width="2.3" height="3.66"/></clipPath><filter id="luminosity-noclip-4" x="9.61" y="-14.14" width="52.07" height="53.13" filterUnits="userSpaceOnUse" color-interpolation-filters="sRGB"><feFlood flood-color="#fff" result="bg"/><feBlend in="SourceGraphic" in2="bg"/></filter><mask id="mask-4" x="9.61" y="-14.14" width="52.07" height="53.13" maskUnits="userSpaceOnUse"><g class="cls-14"><g class="cls-3"><g class="cls-15"><g class="cls-16"><g class="cls-17"><rect class="cls-18" x="9.61" y="8.15" width="30.9" height="30.84"/></g></g></g></g></g></mask><clipPath id="clip-path-50"><rect class="cls-2" x="27.34" y="8.44" width="9.39" height="11.69"/></clipPath><clipPath id="clip-path-51"><path class="cls-2" d="M35.13,8.44C33.65,14.13,30.56,18.7,28,19.85h0l-.14.06h-.07l-.07,0h-.12l-.05,0h-.18a1.16,1.16,0,0,0,.37.07c2.46,0,4.93-4.39,9-11.69Z"/></clipPath><clipPath id="clip-path-52"><rect class="cls-2" x="27.35" y="-14.14" width="34.33" height="34.27"/></clipPath><linearGradient id="linear-gradient-15" x1="-116" y1="-290" x2="-115" y2="-290" gradientTransform="matrix(0, -11.42, -11.44, 0, -3286.49, -1305.22)" gradientUnits="userSpaceOnUse"><stop offset="0" stop-color="#006db0"/><stop offset="0.13" stop-color="#0a87c4"/><stop offset="0.33" stop-color="#16a8de"/><stop offset="0.49" stop-color="#1dbdee"/><stop offset="0.6" stop-color="#20c4f4"/><stop offset="1" stop-color="#20c4f4"/></linearGradient><filter id="luminosity-noclip-5" x="1.32" y="7.47" width="16.93" height="14.38" filterUnits="userSpaceOnUse" color-interpolation-filters="sRGB"><feFlood flood-color="#fff" result="bg"/><feBlend in="SourceGraphic" in2="bg"/></filter><mask id="mask-5" x="1.32" y="7.47" width="16.93" height="14.38" maskUnits="userSpaceOnUse"><g class="cls-19"><g class="cls-3"><g class="cls-20"><g class="cls-21"><g class="cls-22"><rect class="cls-23" x="1.38" y="7.53" width="16.86" height="14.32"/></g></g></g></g></g></mask><clipPath id="clip-path-53"><rect class="cls-2" x="6.55" y="8.69" width="8.55" height="11.74"/></clipPath><clipPath id="clip-path-54"><path class="cls-2" d="M8.38,17.67c2.52-4.85,3.71-7.92,5.82-8.75h0C12,9.77,9.58,13,8.38,17.67"/></clipPath><clipPath id="clip-path-55"><rect class="cls-2" x="8.33" y="-17.46" width="35.15" height="35.09"/></clipPath><linearGradient id="linear-gradient-16" x1="-116" y1="-290" x2="-115" y2="-290" gradientTransform="matrix(0, -11.69, -11.72, 0, -3386.68, -1336.65)" gradientUnits="userSpaceOnUse"><stop offset="0" stop-color="#008fd0"/><stop offset="0.54" stop-color="#009ddb"/><stop offset="1" stop-color="#00a4e0"/></linearGradient><filter id="luminosity-noclip-6" x="-68.92" y="-19.44" width="112.43" height="91.6" filterUnits="userSpaceOnUse" color-interpolation-filters="sRGB"><feFlood flood-color="#fff" result="bg"/><feBlend in="SourceGraphic" in2="bg"/></filter><mask id="mask-6" x="-68.92" y="-19.44" width="112.43" height="91.6" maskUnits="userSpaceOnUse"><g class="cls-24"><g class="cls-3"><g class="cls-25"><g class="cls-26"><g class="cls-27"><polygon class="cls-28" points="22.88 13.42 -10.04 72.17 -68.92 39.3 -36.01 -19.44 22.88 13.42"/></g></g></g></g></g></mask><clipPath id="clip-path-56"><rect class="cls-2" x="9.32" y="13.66" width="5.41" height="6.77"/></clipPath><clipPath id="clip-path-57"><path class="cls-2" d="M9.52,20.41h-.2a4.13,4.13,0,0,0,4.29-3.19l1.12-3.58A49.93,49.93,0,0,0,11.51,19a2.63,2.63,0,0,1-2,1.45"/></clipPath><clipPath id="clip-path-58"><rect class="cls-2" x="9.34" y="-13.66" width="34.17" height="34.1"/></clipPath><linearGradient id="linear-gradient-17" x1="-116" y1="-290" x2="-115" y2="-290" gradientTransform="matrix(0, -11.37, -11.39, 0, -3290.91, -1298.67)" gradientUnits="userSpaceOnUse"><stop offset="0" stop-color="#00a1e4"/><stop offset="1" stop-color="#00a1e4"/></linearGradient><clipPath id="clip-path-59"><path class="cls-2" d="M9.52,20.41h0a2.63,2.63,0,0,0,2-1.45h0a49.93,49.93,0,0,1,3.22-5.3h0c.39-1.21.71-2.14,1-2.85h0a32.8,32.8,0,0,0-6.23,9.6"/></clipPath><clipPath id="clip-path-60"><rect class="cls-2" x="9.48" y="10.75" width="6.24" height="9.6"/></clipPath><linearGradient id="linear-gradient-18" x1="-116" y1="-290" x2="-115" y2="-290" gradientTransform="matrix(0, -9.6, -9.62, 0, -2778.46, -1093.8)" gradientUnits="userSpaceOnUse"><stop offset="0" stop-color="#005da4"/><stop offset="0.15" stop-color="#005da4"/><stop offset="0.32" stop-color="#007bc0"/><stop offset="0.5" stop-color="#00a1e4"/><stop offset="0.57" stop-color="#05a2e4"/><stop offset="0.65" stop-color="#14a6e4"/><stop offset="0.74" stop-color="#2cace4"/><stop offset="0.83" stop-color="#4eb5e4"/><stop offset="0.92" stop-color="#72bee4"/><stop offset="1" stop-color="#72bee4"/></linearGradient><clipPath id="clip-path-61"><path class="cls-2" d="M15,8.71h-.13l-.08,0h-.13l-.13,0h-.13l-.1,0h-.06l0,0h0c-2.11.83-3.3,3.9-5.82,8.75h0a20.76,20.76,0,0,0-.53,2.76H9.52a32.8,32.8,0,0,1,6.23-9.6h0a5.72,5.72,0,0,1,.72-1.24h0A2.38,2.38,0,0,0,16,9h0l0,0h0l0,0h-.06l-.06,0h0l0,0h0l0,0h0l-.07,0h0l-.06,0h0l-.14,0H15"/></clipPath><clipPath id="clip-path-62"><rect class="cls-2" x="4.96" y="-12.34" width="31.79" height="31.73" transform="translate(-0.29 3.68) rotate(-10.02)"/></clipPath><linearGradient id="linear-gradient-19" x1="-116" y1="-290" x2="-115" y2="-290" gradientTransform="matrix(0, -10.58, -10.6, -0.01, -3062.62, -1210.74)" gradientUnits="userSpaceOnUse"><stop offset="0" stop-color="#005496"/><stop offset="0.1" stop-color="#005496"/><stop offset="1" stop-color="#0083c5"/></linearGradient><clipPath id="clip-path-63"><path class="cls-2" d="M29.35,11.59c-.48,1.55-.87,2.83-1.21,3.88h0A41.83,41.83,0,0,0,32,8.69h0a4,4,0,0,0-2.67,2.9"/></clipPath><clipPath id="clip-path-64"><rect class="cls-2" x="28.09" y="-0.89" width="16.36" height="16.33"/></clipPath><linearGradient id="linear-gradient-20" x1="-116" y1="-290" x2="-115" y2="-290" gradientTransform="matrix(0, -5.44, -5.45, 0, -1551.48, -617.45)" gradientUnits="userSpaceOnUse"><stop offset="0" stop-color="#00a1e4"/><stop offset="0.47" stop-color="#009fe1"/><stop offset="0.78" stop-color="#0098d8"/><stop offset="0.87" stop-color="#0095d4"/><stop offset="1" stop-color="#0095d4"/></linearGradient><filter id="luminosity-noclip-7" x="-7.26" y="2.25" width="48.31" height="44.29" filterUnits="userSpaceOnUse" color-interpolation-filters="sRGB"><feFlood flood-color="#fff" result="bg"/><feBlend in="SourceGraphic" in2="bg"/></filter><mask id="mask-7" x="-7.26" y="2.25" width="48.31" height="44.29" maskUnits="userSpaceOnUse"><g class="cls-29"><g class="cls-3"><g class="cls-30"><g class="cls-31"><g class="cls-32"><rect class="cls-33" x="23.42" y="7.45" width="17.63" height="17.59"/></g></g></g></g></g></mask><clipPath id="clip-path-65"><rect class="cls-2" x="27.97" y="8.44" width="7.15" height="11.41"/></clipPath><clipPath id="clip-path-66"><path class="cls-2" d="M28.18,19.75l-.21.1c2.59-1.15,5.68-5.72,7.16-11.41h-.3c-3.4,6.05-4.49,10.1-6.65,11.31"/></clipPath><clipPath id="clip-path-67"><rect class="cls-2" x="-4.19" y="5.24" width="38.23" height="38.31" transform="translate(-11.69 34.85) rotate(-79.98)"/></clipPath><linearGradient id="linear-gradient-21" x1="-116" y1="-290" x2="-115" y2="-290" gradientTransform="matrix(-12.74, 0, 0.01, 12.77, -1441.68, 3741.95)" gradientUnits="userSpaceOnUse"><stop offset="0" stop-color="#00a4e0"/><stop offset="0.36" stop-color="#00a4e0"/><stop offset="0.96" stop-color="#0089cf"/><stop offset="1" stop-color="#0089cf"/></linearGradient><clipPath id="clip-path-68"><path class="cls-2" d="M33.88,8.44H32.14L32,8.69h0a41.83,41.83,0,0,1-3.88,6.78h0a12.54,12.54,0,0,1-1.65,3.77h0a1.75,1.75,0,0,0,.85.82h.18l.05,0h.12l.07,0h.07l.14-.06h0l.21-.1h0c2.16-1.21,3.25-5.26,6.65-11.31h-.95Z"/></clipPath><clipPath id="clip-path-69"><rect class="cls-2" x="-0.91" y="8.41" width="35.69" height="35.62"/></clipPath><linearGradient id="linear-gradient-22" x1="-116" y1="-290" x2="-115" y2="-290" gradientTransform="matrix(0, 11.87, 11.9, 0, 3480.85, 1385.67)" gradientUnits="userSpaceOnUse"><stop offset="0" stop-color="#008dcf"/><stop offset="0.5" stop-color="#0087c8"/><stop offset="0.63" stop-color="#0078b8"/><stop offset="1" stop-color="#00508f"/></linearGradient><filter id="luminosity-noclip-8" x="12.13" y="4.91" width="13.78" height="10.53" filterUnits="userSpaceOnUse" color-interpolation-filters="sRGB"><feFlood flood-color="#fff" result="bg"/><feBlend in="SourceGraphic" in2="bg"/></filter><mask id="mask-8" x="12.13" y="4.91" width="13.78" height="10.53" maskUnits="userSpaceOnUse"><g class="cls-34"><g class="cls-3"><g class="cls-35"><g class="cls-36"><g class="cls-37"><rect class="cls-38" x="12.13" y="4.91" width="7.16" height="4.94"/></g></g></g></g></g></mask><clipPath id="clip-path-70"><rect class="cls-2" x="14.84" y="8.69" width="5.15" height="1.11"/></clipPath><clipPath id="clip-path-71"><path class="cls-2" d="M15.1,8.7h.21a2.66,2.66,0,0,1,1.54.49,2.81,2.81,0,0,1,1.84-.5H15.1"/></clipPath><clipPath id="clip-path-72"><polygon class="cls-2" points="15.34 7.25 18.81 8.69 18.06 10.47 14.6 9.04 15.34 7.25"/></clipPath><linearGradient id="linear-gradient-23" x1="-116" y1="-290" x2="-115" y2="-290" gradientTransform="matrix(2.74, 1.13, 1.14, -2.73, 662.95, -653.46)" gradientUnits="userSpaceOnUse"><stop offset="0" stop-color="#8ccfec"/><stop offset="0.11" stop-color="#84cdec"/><stop offset="0.28" stop-color="#6ec9eb"/><stop offset="0.5" stop-color="#4ac2ea"/><stop offset="0.7" stop-color="#20bae8"/><stop offset="1" stop-color="#20bae8"/></linearGradient><clipPath id="clip-path-73"><path class="cls-2" d="M18.69,8.69a2.81,2.81,0,0,0-1.84.5,3.31,3.31,0,0,1,.45.39,5.63,5.63,0,0,1,2-.82A4.62,4.62,0,0,1,20,8.69Z"/></clipPath><clipPath id="clip-path-74"><polygon class="cls-2" points="16.47 8.96 22.96 6.03 25.91 12.51 19.41 15.44 16.47 8.96"/></clipPath><linearGradient id="linear-gradient-24" x1="-116" y1="-290" x2="-115" y2="-290" gradientTransform="matrix(2.16, -0.98, -0.98, -2.16, -16.46, -730.36)" gradientUnits="userSpaceOnUse"><stop offset="0" stop-color="#68c5ea"/><stop offset="0.34" stop-color="#68c5ea"/><stop offset="0.36" stop-color="#64c4ea"/><stop offset="0.66" stop-color="#2ebaea"/><stop offset="0.88" stop-color="#0db4ea"/><stop offset="1" stop-color="#00b2ea"/></linearGradient><filter id="luminosity-noclip-9" x="-2.86" y="-9.1" width="50.92" height="52.33" filterUnits="userSpaceOnUse" color-interpolation-filters="sRGB"><feFlood flood-color="#fff" result="bg"/><feBlend in="SourceGraphic" in2="bg"/></filter><mask id="mask-9" x="-2.86" y="-9.1" width="50.92" height="52.33" maskUnits="userSpaceOnUse"><g class="cls-39"><g class="cls-3"><g class="cls-40"><g class="cls-41"><g class="cls-42"><rect class="cls-43" x="20.3" y="-9.1" width="27.76" height="27.71"/></g></g></g></g></g></mask><clipPath id="clip-path-75"><rect class="cls-2" x="25.96" y="8.45" width="6.17" height="9.55"/></clipPath><clipPath id="clip-path-76"><path class="cls-2" d="M28.14,15.47c.34-1.05.73-2.33,1.22-3.88A4,4,0,0,1,32,8.69l.12-.24a4,4,0,0,0-4,3.13c-1,3.12-1.57,5.14-2.14,6.42a19,19,0,0,0,2.18-2.53"/></clipPath><clipPath id="clip-path-77"><rect class="cls-2" x="-2.86" y="8.39" width="34.92" height="34.84"/></clipPath><linearGradient id="linear-gradient-25" x1="-116" y1="-290" x2="-115" y2="-290" gradientTransform="matrix(0, 11.61, 11.64, 0, 3403.65, 1356.14)" gradientUnits="userSpaceOnUse"><stop offset="0" stop-color="#00a5e5"/><stop offset="1" stop-color="#00a8e3"/></linearGradient></defs><title>.net1-new</title><polygon class="cls-44" points="3.36 0.93 38.72 0.93 38.72 32.5 27.55 43.64 3.36 43.64 3.36 0.93"/><polygon class="cls-45" points="27.55 32.5 38.72 32.5 27.55 43.64 27.55 32.5"/><path class="cls-46" d="M2.43,26V44.57H28.48L39.65,33.42V0H2.43V9.28M28.48,41.94V33.42H37Zm9.31-10.37H26.62V42.71H4.29V1.86h33.5Z"/><path class="cls-47" d="M45.07,38.34V35.73l-3.13-.51a8,8,0,0,0-.86-2.06l1.82-2.58L41,28.73l-2.56,1.84a7.57,7.57,0,0,0-2.09-.87l-.54-3.09H33.22l-.51,3.09a7.35,7.35,0,0,0-2.09.85l-2.56-1.82L26.2,30.58,28,33.13a7.7,7.7,0,0,0-.87,2.09L24,35.73v2.61l3.09.54A7.28,7.28,0,0,0,28,41L26.18,43.5,28,45.35l2.58-1.79a8.15,8.15,0,0,0,2.09.86l.52,3.08h2.63l.55-3.09a7.64,7.64,0,0,0,2.08-.87l2.6,1.81,1.85-1.85L41.08,41a7.87,7.87,0,0,0,.86-2.07ZM34.55,40.7a3.65,3.65,0,1,1,3.67-3.64A3.65,3.65,0,0,1,34.55,40.7Z"/><ellipse class="cls-48" cx="34.55" cy="37.06" rx="3.34" ry="3.33"/><g class="cls-49"><g class="cls-50"><rect class="cls-51" x="17.07" y="10.53" width="5.38" height="9.64"/></g></g><g class="cls-52"><g class="cls-53"><rect class="cls-54" x="-21.22" y="10.15" width="44.29" height="44.2"/></g></g><path class="cls-55" d="M20,8.69a4.62,4.62,0,0,0-.73.07,5.63,5.63,0,0,0-2,.82,6.23,6.23,0,0,1,.52.6,6.69,6.69,0,0,1,2-1.21,4.79,4.79,0,0,1,.74-.21A2.62,2.62,0,0,0,20,8.69"/><g class="cls-56"><g class="cls-57"><g class="cls-58"><g class="cls-59"><rect class="cls-60" x="20.58" y="-16.44" width="35.24" height="35.17"/></g></g></g></g><g class="cls-61"><g class="cls-62"><path class="cls-63" d="M20.56,8.76A2.62,2.62,0,0,0,20,8.69h1.26a4,4,0,0,0-.69.06"/></g></g><path class="cls-64" d="M25.1,19.41q-.18-.18-.36-.39a6.27,6.27,0,0,1-1.61.85,2.14,2.14,0,0,0,.6.21,2.84,2.84,0,0,0,.51.05,3.44,3.44,0,0,0,1.48-.26,3,3,0,0,1-.62-.46"/><g class="cls-65"><g class="cls-66"><rect class="cls-67" x="-20.79" y="8.81" width="45.98" height="45.89"/></g></g><g class="cls-68"><g class="cls-69"><rect class="cls-70" x="17.86" y="9" width="6.96" height="10.9"/></g></g><g class="cls-71"><g class="cls-72"><path class="cls-73" d="M15.75,10.81c-.31.71-.63,1.64-1,2.85A20.5,20.5,0,0,1,17,10.89c-.11-.33-.22-.62-.34-.89a11.38,11.38,0,0,0-.95.81"/></g></g><path class="cls-74" d="M17,9.8l-.27.2c.12.27.23.56.34.89a5,5,0,0,1,.41-.39A4.54,4.54,0,0,0,17,9.8"/><path class="cls-75" d="M17.3,9.58,17,9.8a4.54,4.54,0,0,1,.48.7c.12-.11.24-.22.37-.32a6.23,6.23,0,0,0-.52-.6"/><g class="cls-76"><g class="cls-77"><g class="cls-78"><g class="cls-79"><rect class="cls-80" x="27.35" y="-14.14" width="34.33" height="34.27"/></g></g></g></g><g class="cls-81"><g class="cls-82"><path class="cls-83" d="M14.2,8.92h0l0,0h.06l.1,0h.13l.13,0h.13l.08,0h0c-2.76,0-6.57,5.12-8.29,11.75h.33c.55-1,1-1.9,1.5-2.76C9.58,13,12,9.77,14.2,8.92"/></g></g><path class="cls-84" d="M15.75,10.81A11.38,11.38,0,0,1,16.7,10c-.08-.15-.15-.3-.23-.43a5.72,5.72,0,0,0-.72,1.24"/><path class="cls-84" d="M16,9a2.38,2.38,0,0,1,.49.61l.14-.16A2.74,2.74,0,0,0,16,8.94l0,0h0"/><g class="cls-85"><g class="cls-86"><rect class="cls-87" x="8.33" y="-17.46" width="35.15" height="35.09"/></g></g><path class="cls-88" d="M16.61,9.41l-.14.16c.08.13.15.28.23.43L17,9.8a3.33,3.33,0,0,0-.36-.39"/><g class="cls-89"><g class="cls-90"><g class="cls-91"><g class="cls-92"><rect class="cls-93" x="9.34" y="-13.66" width="34.17" height="34.1"/></g></g></g></g><g class="cls-94"><g class="cls-95"><rect class="cls-96" x="9.48" y="10.75" width="6.24" height="9.6"/></g></g><path class="cls-83" d="M8.38,17.67c-.45.86-1,1.79-1.5,2.76h1a20.76,20.76,0,0,1,.53-2.76"/><g class="cls-97"><g class="cls-98"><rect class="cls-99" x="4.96" y="-12.34" width="31.79" height="31.73" transform="translate(-0.29 3.68) rotate(-10.02)"/></g></g><g class="cls-100"><g class="cls-101"><rect class="cls-102" x="28.09" y="-0.89" width="16.36" height="16.33"/></g></g><g class="cls-103"><g class="cls-104"><g class="cls-105"><g class="cls-106"><rect class="cls-107" x="-4.19" y="5.24" width="38.23" height="38.31" transform="translate(-11.69 34.85) rotate(-79.98)"/></g></g></g></g><path class="cls-108" d="M26.49,19.24a12.54,12.54,0,0,0,1.65-3.77A19,19,0,0,1,26,18h0a6.77,6.77,0,0,0,.53,1.23"/><path class="cls-64" d="M26.49,19.24a2.21,2.21,0,0,1-.62.54l-.15.09a2.28,2.28,0,0,0,.79.24h0l.13,0h.58l.12,0a1.75,1.75,0,0,1-.85-.82"/><path class="cls-109" d="M21.72,20.13a3.68,3.68,0,0,0,.73-.07,4.32,4.32,0,0,0,.68-.19,2.14,2.14,0,0,0,.6.21,2.84,2.84,0,0,0,.51.05Z"/><path class="cls-109" d="M24.24,20.13a3.44,3.44,0,0,0,1.48-.26,2.28,2.28,0,0,0,.79.24h0l.13,0h-2.4Z"/><path class="cls-110" d="M26.78,20.13h.44l.12,0h0a1.16,1.16,0,0,0,.37.07Z"/><path class="cls-111" d="M26,18h0c-.27.25-.54.48-.8.69l-.42.32q.18.21.36.39a3,3,0,0,0,.62.46l.15-.09a2.21,2.21,0,0,0,.62-.54A6.77,6.77,0,0,1,26,18"/><g class="cls-112"><g class="cls-113"><rect class="cls-114" x="-0.91" y="8.41" width="35.69" height="35.62"/></g></g><g class="cls-115"><g class="cls-116"><path class="cls-117" d="M15.1,8.7h.23l.14,0h0l.06,0h0l.07,0h0l.06,0h0l0,0h0l.06,0h.06l0,0h0a2.74,2.74,0,0,1,.66.47l.24-.22a2.66,2.66,0,0,0-1.54-.49H15.1"/><path class="cls-118" d="M16.61,9.41A3.33,3.33,0,0,1,17,9.8l.33-.22a3.31,3.31,0,0,0-.45-.39l-.24.22"/><g class="cls-119"><g class="cls-120"><polygon class="cls-121" points="15.34 7.25 18.81 8.69 18.06 10.47 14.6 9.04 15.34 7.25"/></g></g><g class="cls-122"><g class="cls-123"><polygon class="cls-124" points="16.47 8.96 22.96 6.03 25.91 12.51 19.41 15.44 16.47 8.96"/></g></g></g></g><g class="cls-125"><g class="cls-126"><g class="cls-127"><g class="cls-128"><rect class="cls-129" x="-2.86" y="8.39" width="34.92" height="34.84"/></g></g></g></g><path class="cls-130" d="M7,30.23a.49.49,0,0,0-.38.16.56.56,0,0,0-.15.39.54.54,0,0,0,.15.38.49.49,0,0,0,.38.16.53.53,0,0,0,.39-.16.55.55,0,0,0,.16-.38A.55.55,0,0,0,7,30.23Z"/><path class="cls-130" d="M13.52,29.16a7.64,7.64,0,0,0,.05,1h0l-.28-.46L9.79,24.29h-1v6.92h.81v-5a6.33,6.33,0,0,0,0-.95h0a2.48,2.48,0,0,0,.22.43l3.58,5.52h1V24.29h-.81Z"/><polygon class="cls-130" points="16.68 28.06 19.18 28.06 19.18 27.32 16.68 27.32 16.68 25.02 19.38 25.02 19.38 24.29 15.87 24.29 15.87 31.21 19.54 31.21 19.54 30.48 16.68 30.48 16.68 28.06"/><polygon class="cls-130" points="20.31 25.02 22.31 25.02 22.31 31.21 23.12 31.21 23.12 25.02 25.12 25.02 25.12 24.29 20.31 24.29 20.31 25.02"/></svg>