<svg id="Layer_1" data-name="Layer 1" xmlns="http://www.w3.org/2000/svg" xmlns:xlink="http://www.w3.org/1999/xlink" viewBox="0 0 48 48"><defs><style>.cls-1,.cls-4,.cls-8{clip-path:url(#clip-path);}.cls-1{filter:url(#luminosity-noclip);}.cls-131,.cls-2{fill:none;}.cls-3{isolation:isolate;}.cls-5{clip-path:url(#clip-path-3);}.cls-6{clip-path:url(#clip-path-4);}.cls-7{fill:url(#linear-gradient);}.cls-8{filter:url(#luminosity-noclip-2);}.cls-10,.cls-9{clip-path:url(#clip-path-9);}.cls-9{filter:url(#luminosity-noclip-3);}.cls-11{clip-path:url(#clip-path-11);}.cls-12{clip-path:url(#clip-path-12);}.cls-13{fill:url(#linear-gradient-3);}.cls-14,.cls-15{clip-path:url(#clip-path-13);}.cls-14{filter:url(#luminosity-noclip-4);}.cls-16{clip-path:url(#clip-path-15);}.cls-17{clip-path:url(#clip-path-16);}.cls-18{fill:url(#linear-gradient-4);}.cls-19,.cls-20{clip-path:url(#clip-path-17);}.cls-19{filter:url(#luminosity-noclip-5);}.cls-21{clip-path:url(#clip-path-19);}.cls-22{clip-path:url(#clip-path-20);}.cls-23{fill:url(#linear-gradient-5);}.cls-24,.cls-25{clip-path:url(#clip-path-21);}.cls-24{filter:url(#luminosity-noclip-6);}.cls-26{clip-path:url(#clip-path-23);}.cls-27{clip-path:url(#clip-path-24);}.cls-28{fill:url(#linear-gradient-6);}.cls-29,.cls-30{clip-path:url(#clip-path-25);}.cls-29{filter:url(#luminosity-noclip-7);}.cls-31{clip-path:url(#clip-path-27);}.cls-32{clip-path:url(#clip-path-28);}.cls-33{fill:url(#linear-gradient-7);}.cls-34,.cls-35{clip-path:url(#clip-path-29);}.cls-34{filter:url(#luminosity-noclip-8);}.cls-36{clip-path:url(#clip-path-31);}.cls-37{clip-path:url(#clip-path-32);}.cls-38{fill:url(#linear-gradient-8);}.cls-39,.cls-40{clip-path:url(#clip-path-33);}.cls-39{filter:url(#luminosity-noclip-9);}.cls-41{clip-path:url(#clip-path-35);}.cls-42{clip-path:url(#clip-path-36);}.cls-43{fill:url(#linear-gradient-9);}.cls-44{fill:#efeeee;}.cls-45{fill:#ababab;}.cls-46{fill:#010101;}.cls-47{fill:#8d9aad;stroke:#000;}.cls-48{fill:#fff;}.cls-49{clip-path:url(#clip-path-37);}.cls-50{clip-path:url(#clip-path-38);}.cls-51{fill:url(#linear-gradient-10);}.cls-52{clip-path:url(#clip-path-39);}.cls-53{clip-path:url(#clip-path-40);}.cls-54{fill:url(#linear-gradient-11);}.cls-55{fill:#005999;}.cls-56{mask:url(#mask);}.cls-57{clip-path:url(#clip-path-41);}.cls-58{clip-path:url(#clip-path-42);}.cls-59{clip-path:url(#clip-path-43);}.cls-60{fill:url(#linear-gradient-12);}.cls-61{mask:url(#mask-2);}.cls-62{clip-path:url(#clip-path-44);}.cls-63{fill:#0091be;}.cls-64{fill:#006cb6;}.cls-65{clip-path:url(#clip-path-45);}.cls-66{clip-path:url(#clip-path-46);}.cls-67{fill:url(#linear-gradient-13);}.cls-68{clip-path:url(#clip-path-47);}.cls-69{clip-path:url(#clip-path-48);}.cls-70{fill:url(#linear-gradient-14);}.cls-71{mask:url(#mask-3);}.cls-72{clip-path:url(#clip-path-49);}.cls-73{fill:#00b8f1;}.cls-74{fill:#0078ae;}.cls-75{fill:#005e9c;}.cls-76{mask:url(#mask-4);}.cls-77{clip-path:url(#clip-path-50);}.cls-78{clip-path:url(#clip-path-51);}.cls-79{clip-path:url(#clip-path-52);}.cls-80{fill:url(#linear-gradient-15);}.cls-81{mask:url(#mask-5);}.cls-82{clip-path:url(#clip-path-53);}.cls-83{fill:#00a0e3;}.cls-84{fill:#0082c5;}.cls-85{clip-path:url(#clip-path-54);}.cls-86{clip-path:url(#clip-path-55);}.cls-87{fill:url(#linear-gradient-16);}.cls-88{fill:#007dc4;}.cls-89{mask:url(#mask-6);}.cls-90{clip-path:url(#clip-path-56);}.cls-91{clip-path:url(#clip-path-57);}.cls-92{clip-path:url(#clip-path-58);}.cls-93{fill:url(#linear-gradient-17);}.cls-94{clip-path:url(#clip-path-59);}.cls-95{clip-path:url(#clip-path-60);}.cls-96{fill:url(#linear-gradient-18);}.cls-97{clip-path:url(#clip-path-61);}.cls-98{clip-path:url(#clip-path-62);}.cls-99{fill:url(#linear-gradient-19);}.cls-100{clip-path:url(#clip-path-63);}.cls-101{clip-path:url(#clip-path-64);}.cls-102{fill:url(#linear-gradient-20);}.cls-103{mask:url(#mask-7);}.cls-104{clip-path:url(#clip-path-65);}.cls-105{clip-path:url(#clip-path-66);}.cls-106{clip-path:url(#clip-path-67);}.cls-107{fill:url(#linear-gradient-21);}.cls-108{fill:#009ade;}.cls-109{fill:#0060ae;}.cls-110{fill:#0064b0;}.cls-111{fill:#0062a7;}.cls-112{clip-path:url(#clip-path-68);}.cls-113{clip-path:url(#clip-path-69);}.cls-114{fill:url(#linear-gradient-22);}.cls-115{mask:url(#mask-8);}.cls-116{clip-path:url(#clip-path-70);}.cls-117{fill:#6dc3e8;}.cls-118{fill:#37bde9;}.cls-119{clip-path:url(#clip-path-71);}.cls-120{clip-path:url(#clip-path-72);}.cls-121{fill:url(#linear-gradient-23);}.cls-122{clip-path:url(#clip-path-73);}.cls-123{clip-path:url(#clip-path-74);}.cls-124{fill:url(#linear-gradient-24);}.cls-125{mask:url(#mask-9);}.cls-126{clip-path:url(#clip-path-75);}.cls-127{clip-path:url(#clip-path-76);}.cls-128{clip-path:url(#clip-path-77);}.cls-129{fill:url(#linear-gradient-25);}.cls-130{fill:#231f20;}.cls-131{stroke:#8d9aad;stroke-miterlimit:10;stroke-width:2px;}</style><clipPath id="clip-path"><rect class="cls-2" x="15.35" y="12.65" width="13.11" height="4.62"/></clipPath><clipPath id="clip-path-3"><rect class="cls-2" x="15.35" y="12.65" width="13.1" height="4.62"/></clipPath><clipPath id="clip-path-4"><rect class="cls-2" x="14.67" y="12.67" width="13.79" height="13.86"/></clipPath><linearGradient id="linear-gradient" x1="-174" y1="-290" x2="-173" y2="-290" gradientTransform="matrix(0, 4.62, 4.6, 0, 1354.6, 816.75)" gradientUnits="userSpaceOnUse"><stop offset="0" stop-color="#231f20"/><stop offset="0.15" stop-color="#464344"/><stop offset="0.74" stop-color="#cac9c9"/><stop offset="1" stop-color="#fff"/></linearGradient><clipPath id="clip-path-9"><rect class="cls-2" x="10.35" y="12.38" width="13.1" height="11.21"/></clipPath><clipPath id="clip-path-11"><rect class="cls-2" x="10.35" y="12.38" width="13.11" height="11.21"/></clipPath><clipPath id="clip-path-12"><rect class="cls-2" x="10.36" y="12.38" width="13.1" height="11.21"/></clipPath><linearGradient id="linear-gradient-3" x1="-174" y1="-290" x2="-173" y2="-290" gradientTransform="matrix(0, -11.21, -11.15, 0, -3216.65, -1927.38)" gradientUnits="userSpaceOnUse"><stop offset="0" stop-color="#231f20"/><stop offset="0.46" stop-color="#231f20"/><stop offset="0.54" stop-color="#464344"/><stop offset="0.86" stop-color="#cac9c9"/><stop offset="1" stop-color="#fff"/></linearGradient><clipPath id="clip-path-13"><rect class="cls-2" x="24.65" y="12.51" width="13.11" height="8.05"/></clipPath><clipPath id="clip-path-15"><rect class="cls-2" x="24.65" y="12.51" width="13.11" height="8.05"/></clipPath><clipPath id="clip-path-16"><rect class="cls-2" x="13.7" y="12.48" width="24.01" height="24.15"/></clipPath><linearGradient id="linear-gradient-4" x1="-174" y1="-290" x2="-173" y2="-290" gradientTransform="matrix(0, 8.05, 8, 0, 2352.59, 1413.11)" gradientUnits="userSpaceOnUse"><stop offset="0" stop-color="#333132"/><stop offset="0.73" stop-color="#fff"/><stop offset="1" stop-color="#fff"/></linearGradient><clipPath id="clip-path-17"><rect class="cls-2" x="7.25" y="11.94" width="13.1" height="11.21"/></clipPath><clipPath id="clip-path-19"><rect class="cls-2" x="7.25" y="11.94" width="13.11" height="11.21"/></clipPath><clipPath id="clip-path-20"><rect class="cls-2" x="7.3" y="11.98" width="13.1" height="11.21"/></clipPath><linearGradient id="linear-gradient-5" gradientTransform="matrix(0, -11.21, -11.15, 0, -3219.49, -1927.65)" xlink:href="#linear-gradient"/><clipPath id="clip-path-21"><rect class="cls-2" x="9.06" y="13.7" width="9.92" height="11.74"/></clipPath><clipPath id="clip-path-23"><polygon class="cls-2" points="9.06 22.78 13.81 25.45 18.98 16.37 14.23 13.7 9.06 22.78"/></clipPath><clipPath id="clip-path-24"><polygon class="cls-2" points="24 16.6 -1.58 62.6 -47.33 36.87 -21.75 -9.13 24 16.6"/></clipPath><linearGradient id="linear-gradient-6" x1="-174" y1="-290" x2="-173" y2="-290" gradientTransform="matrix(-8.53, 15.33, 15.25, 8.57, 2954.26, 5170.45)" gradientUnits="userSpaceOnUse"><stop offset="0" stop-color="#231f20"/><stop offset="0.02" stop-color="#4c494a"/><stop offset="0.05" stop-color="#767374"/><stop offset="0.09" stop-color="#9b9999"/><stop offset="0.12" stop-color="#bab9b9"/><stop offset="0.16" stop-color="#d3d2d3"/><stop offset="0.2" stop-color="#e7e6e6"/><stop offset="0.24" stop-color="#f5f4f4"/><stop offset="0.3" stop-color="#fdfdfd"/><stop offset="0.4" stop-color="#fff"/><stop offset="1" stop-color="#fff"/></linearGradient><clipPath id="clip-path-25"><rect class="cls-2" x="25.02" y="11.92" width="13.11" height="4.59"/></clipPath><clipPath id="clip-path-27"><rect class="cls-2" x="25.02" y="11.92" width="13.11" height="4.59"/></clipPath><clipPath id="clip-path-28"><rect class="cls-2" x="24.43" y="11.92" width="13.7" height="13.78"/></clipPath><linearGradient id="linear-gradient-7" gradientTransform="matrix(0, 4.59, 4.57, 0, 1355.94, 810.98)" xlink:href="#linear-gradient"/><clipPath id="clip-path-29"><rect class="cls-2" x="15.7" y="12.55" width="5.56" height="1.29"/></clipPath><clipPath id="clip-path-31"><rect class="cls-2" x="15.7" y="12.55" width="5.56" height="1.29"/></clipPath><clipPath id="clip-path-32"><rect class="cls-2" x="15.65" y="9.94" width="5.56" height="3.87"/></clipPath><linearGradient id="linear-gradient-8" x1="-174" y1="-290" x2="-173" y2="-290" gradientTransform="matrix(0, -1.29, -1.28, 0, -353.41, -210.55)" gradientUnits="userSpaceOnUse"><stop offset="0" stop-color="#fff"/><stop offset="0.16" stop-color="#f8f8f8"/><stop offset="0.39" stop-color="#e3e4e5"/><stop offset="0.67" stop-color="#c2c3c5"/><stop offset="0.99" stop-color="#949699"/><stop offset="1" stop-color="#939598"/></linearGradient><clipPath id="clip-path-33"><rect class="cls-2" x="22" y="13.42" width="13.11" height="7.23"/></clipPath><clipPath id="clip-path-35"><rect class="cls-2" x="22" y="13.42" width="13.11" height="7.23"/></clipPath><clipPath id="clip-path-36"><rect class="cls-2" x="22" y="-1.04" width="21.57" height="21.7"/></clipPath><linearGradient id="linear-gradient-9" gradientTransform="matrix(0, -7.23, -7.19, 0, -2057.01, -1237.67)" xlink:href="#linear-gradient"/><clipPath id="clip-path-37"><path class="cls-2" d="M19.47,14.62c.84,2.6,1.16,7.23,3.63,7.23h0a3.66,3.66,0,0,0,.57-.05h0c-2.24-.53-2.51-5.11-3.88-7.49h0l-.32.31"/></clipPath><clipPath id="clip-path-38"><rect class="cls-2" x="19.5" y="14.34" width="4.18" height="7.55"/></clipPath><linearGradient id="linear-gradient-10" x1="-174" y1="-290" x2="-173" y2="-290" gradientTransform="matrix(0, 11.25, 11.19, 0, 3266.07, 1970.43)" gradientUnits="userSpaceOnUse"><stop offset="0" stop-color="#0095da"/><stop offset="0.11" stop-color="#0095da"/><stop offset="0.18" stop-color="#0397db"/><stop offset="0.23" stop-color="#0e9fdf"/><stop offset="0.28" stop-color="#1face6"/><stop offset="0.33" stop-color="#37bef0"/><stop offset="0.35" stop-color="#44c8f5"/><stop offset="0.45" stop-color="#44c8f5"/><stop offset="0.47" stop-color="#40c4f2"/><stop offset="0.63" stop-color="#1d9dda"/><stop offset="0.76" stop-color="#0886cb"/><stop offset="0.85" stop-color="#007dc5"/><stop offset="1" stop-color="#007dc5"/></linearGradient><clipPath id="clip-path-39"><path class="cls-2" d="M19.79,14.31c1.37,2.38,1.64,7,3.88,7.49h0a2.46,2.46,0,0,0,.53-.15h0c-2-1-2.57-5.44-4.13-7.59h0l-.28.25"/></clipPath><clipPath id="clip-path-40"><rect class="cls-2" x="-10.26" y="14.04" width="34.42" height="34.61"/></clipPath><linearGradient id="linear-gradient-11" x1="-174" y1="-290" x2="-173" y2="-290" gradientTransform="matrix(0, 11.54, 11.47, 0, 3349.12, 2019.98)" gradientUnits="userSpaceOnUse"><stop offset="0" stop-color="#0078b9"/><stop offset="0.18" stop-color="#0078b9"/><stop offset="0.24" stop-color="#0087c7"/><stop offset="0.36" stop-color="#00abe6"/><stop offset="0.52" stop-color="#00abe6"/><stop offset="0.73" stop-color="#00ace9"/><stop offset="0.85" stop-color="#00aeef"/><stop offset="1" stop-color="#00aeef"/></linearGradient><filter id="luminosity-noclip" x="14.67" y="-6.79" width="34.94" height="33.32" filterUnits="userSpaceOnUse" color-interpolation-filters="sRGB"><feFlood flood-color="#fff" result="bg"/><feBlend in="SourceGraphic" in2="bg"/></filter><mask id="mask" x="14.67" y="-6.79" width="34.94" height="33.32" maskUnits="userSpaceOnUse"><g class="cls-1"><g class="cls-3"><g class="cls-4"><g class="cls-5"><g class="cls-6"><rect class="cls-7" x="14.67" y="12.67" width="13.79" height="13.86"/></g></g></g></g></g></mask><clipPath id="clip-path-41"><rect class="cls-2" x="22.21" y="12.9" width="4.19" height="7.84"/></clipPath><clipPath id="clip-path-42"><path class="cls-2" d="M25.78,20.74c.21-.17.41-.35.62-.55-.86-2.59-1.17-7.29-3.66-7.29a3.27,3.27,0,0,0-.53,0c2.26.57,2.55,5.53,3.57,7.79"/></clipPath><clipPath id="clip-path-43"><rect class="cls-2" x="22.22" y="-6.79" width="27.39" height="27.54"/></clipPath><linearGradient id="linear-gradient-12" x1="-174" y1="-290" x2="-173" y2="-290" gradientTransform="matrix(0, -9.18, -9.13, 0, -2623.07, -1575.69)" gradientUnits="userSpaceOnUse"><stop offset="0" stop-color="#0066b3"/><stop offset="0.14" stop-color="#0079c1"/><stop offset="0.42" stop-color="#00a9e6"/><stop offset="0.5" stop-color="#00b9f2"/><stop offset="1" stop-color="#00b9f2"/></linearGradient><filter id="luminosity-noclip-2" x="14.67" y="12.65" width="13.79" height="13.88" filterUnits="userSpaceOnUse" color-interpolation-filters="sRGB"><feFlood flood-color="#fff" result="bg"/><feBlend in="SourceGraphic" in2="bg"/></filter><mask id="mask-2" x="14.67" y="12.65" width="13.79" height="13.88" maskUnits="userSpaceOnUse"><g class="cls-8"><g class="cls-3"><g class="cls-4"><g class="cls-5"><g class="cls-6"><rect class="cls-7" x="14.67" y="12.67" width="13.79" height="13.86"/></g></g></g></g></g></mask><clipPath id="clip-path-44"><rect class="cls-2" x="21.77" y="12.9" width="0.98" height="0.05"/></clipPath><clipPath id="clip-path-45"><path class="cls-2" d="M21.63,13.11c2,1.07,2.2,5.91,3.82,7.87h0l.33-.24h0c-1-2.26-1.31-7.22-3.57-7.79h0a3.83,3.83,0,0,0-.58.16"/></clipPath><clipPath id="clip-path-46"><rect class="cls-2" x="-9.93" y="12.99" width="35.74" height="35.94"/></clipPath><linearGradient id="linear-gradient-13" x1="-174" y1="-290" x2="-173" y2="-290" gradientTransform="matrix(0, 11.98, 11.91, 0, 3478.21, 2095.68)" gradientUnits="userSpaceOnUse"><stop offset="0" stop-color="#006cb3"/><stop offset="0.1" stop-color="#006cb3"/><stop offset="0.2" stop-color="#007ec1"/><stop offset="0.4" stop-color="#00abe6"/><stop offset="0.52" stop-color="#00abe6"/><stop offset="0.85" stop-color="#0097d9"/><stop offset="1" stop-color="#0097d9"/></linearGradient><clipPath id="clip-path-47"><path class="cls-2" d="M20.07,14.06c1.56,2.15,2.12,6.6,4.13,7.59h0A4.62,4.62,0,0,0,25.45,21h0c-1.62-2-1.79-6.8-3.82-7.87h0a5.68,5.68,0,0,0-1.56,1"/></clipPath><clipPath id="clip-path-48"><rect class="cls-2" x="20.11" y="13.14" width="5.41" height="8.53"/></clipPath><linearGradient id="linear-gradient-14" x1="-174" y1="-290" x2="-173" y2="-290" gradientTransform="matrix(0, 12.74, 12.67, 0, 3696.17, 2227.8)" gradientUnits="userSpaceOnUse"><stop offset="0" stop-color="#00487e"/><stop offset="0.11" stop-color="#00487e"/><stop offset="0.39" stop-color="#0087c7"/><stop offset="0.52" stop-color="#0087c7"/><stop offset="0.54" stop-color="#0082c2"/><stop offset="0.78" stop-color="#005598"/><stop offset="1" stop-color="#005598"/></linearGradient><filter id="luminosity-noclip-3" x="10.35" y="12.38" width="13.11" height="11.21" filterUnits="userSpaceOnUse" color-interpolation-filters="sRGB"><feFlood flood-color="#fff" result="bg"/><feBlend in="SourceGraphic" in2="bg"/></filter><mask id="mask-3" x="10.35" y="12.38" width="13.11" height="11.21" maskUnits="userSpaceOnUse"><g class="cls-9"><g class="cls-3"><g class="cls-10"><g class="cls-11"><g class="cls-12"><rect class="cls-13" x="10.36" y="12.38" width="13.1" height="11.21"/></g></g></g></g></g></mask><clipPath id="clip-path-49"><rect class="cls-2" x="17.68" y="13.92" width="1.79" height="2.87"/></clipPath><filter id="luminosity-noclip-4" x="13.7" y="-4.98" width="40.46" height="41.6" filterUnits="userSpaceOnUse" color-interpolation-filters="sRGB"><feFlood flood-color="#fff" result="bg"/><feBlend in="SourceGraphic" in2="bg"/></filter><mask id="mask-4" x="13.7" y="-4.98" width="40.46" height="41.6" maskUnits="userSpaceOnUse"><g class="cls-14"><g class="cls-3"><g class="cls-15"><g class="cls-16"><g class="cls-17"><rect class="cls-18" x="13.7" y="12.48" width="24.01" height="24.15"/></g></g></g></g></g></mask><clipPath id="clip-path-50"><rect class="cls-2" x="27.48" y="12.7" width="7.3" height="9.15"/></clipPath><clipPath id="clip-path-51"><path class="cls-2" d="M33.53,12.7c-1.15,4.45-3.55,8-5.56,8.93h0l-.1.05H27.8l-.05,0h-.09l-.05,0h-.13a.87.87,0,0,0,.28.05c1.91,0,3.83-3.44,7-9.15Z"/></clipPath><clipPath id="clip-path-52"><rect class="cls-2" x="27.48" y="-4.98" width="26.68" height="26.84"/></clipPath><linearGradient id="linear-gradient-15" x1="-174" y1="-290" x2="-173" y2="-290" gradientTransform="matrix(0, -8.94, -8.89, 0, -2547.79, -1534.63)" gradientUnits="userSpaceOnUse"><stop offset="0" stop-color="#006db0"/><stop offset="0.13" stop-color="#0a87c4"/><stop offset="0.33" stop-color="#16a8de"/><stop offset="0.49" stop-color="#1dbdee"/><stop offset="0.6" stop-color="#20c4f4"/><stop offset="1" stop-color="#20c4f4"/></linearGradient><filter id="luminosity-noclip-5" x="7.25" y="11.94" width="13.15" height="11.26" filterUnits="userSpaceOnUse" color-interpolation-filters="sRGB"><feFlood flood-color="#fff" result="bg"/><feBlend in="SourceGraphic" in2="bg"/></filter><mask id="mask-5" x="7.25" y="11.94" width="13.15" height="11.26" maskUnits="userSpaceOnUse"><g class="cls-19"><g class="cls-3"><g class="cls-20"><g class="cls-21"><g class="cls-22"><rect class="cls-23" x="7.3" y="11.98" width="13.1" height="11.21"/></g></g></g></g></g></mask><clipPath id="clip-path-53"><rect class="cls-2" x="11.32" y="12.9" width="6.64" height="9.2"/></clipPath><clipPath id="clip-path-54"><path class="cls-2" d="M12.74,19.92c2-3.79,2.88-6.19,4.52-6.84h0c-1.69.66-3.59,3.17-4.52,6.84"/></clipPath><clipPath id="clip-path-55"><rect class="cls-2" x="12.7" y="-7.58" width="27.32" height="27.48"/></clipPath><linearGradient id="linear-gradient-16" x1="-174" y1="-290" x2="-173" y2="-290" gradientTransform="matrix(0, -9.16, -9.11, 0, -2625.65, -1571.65)" gradientUnits="userSpaceOnUse"><stop offset="0" stop-color="#008fd0"/><stop offset="0.54" stop-color="#009ddb"/><stop offset="1" stop-color="#00a4e0"/></linearGradient><filter id="luminosity-noclip-6" x="-47.33" y="-9.13" width="87.37" height="71.73" filterUnits="userSpaceOnUse" color-interpolation-filters="sRGB"><feFlood flood-color="#fff" result="bg"/><feBlend in="SourceGraphic" in2="bg"/></filter><mask id="mask-6" x="-47.33" y="-9.13" width="87.37" height="71.73" maskUnits="userSpaceOnUse"><g class="cls-24"><g class="cls-3"><g class="cls-25"><g class="cls-26"><g class="cls-27"><polygon class="cls-28" points="24 16.6 -1.58 62.6 -47.33 36.87 -21.75 -9.13 24 16.6"/></g></g></g></g></g></mask><clipPath id="clip-path-56"><rect class="cls-2" x="13.47" y="16.79" width="4.21" height="5.3"/></clipPath><clipPath id="clip-path-57"><path class="cls-2" d="M13.63,22.08h-.16a3.23,3.23,0,0,0,3.34-2.5c.34-1.1.62-2,.87-2.8a40.49,40.49,0,0,0-2.51,4.15,2.07,2.07,0,0,1-1.54,1.14"/></clipPath><clipPath id="clip-path-58"><rect class="cls-2" x="13.49" y="-4.61" width="26.55" height="26.7"/></clipPath><linearGradient id="linear-gradient-17" x1="-174" y1="-290" x2="-173" y2="-290" gradientTransform="matrix(0, -8.9, -8.85, 0, -2551.23, -1527.07)" gradientUnits="userSpaceOnUse"><stop offset="0" stop-color="#00a1e4"/><stop offset="1" stop-color="#00a1e4"/></linearGradient><clipPath id="clip-path-59"><path class="cls-2" d="M13.63,22.07h0a2.07,2.07,0,0,0,1.54-1.14h0a40.49,40.49,0,0,1,2.51-4.15h0c.3-.95.55-1.68.79-2.24h0a25.83,25.83,0,0,0-4.84,7.52"/></clipPath><clipPath id="clip-path-60"><rect class="cls-2" x="13.59" y="14.51" width="4.85" height="7.52"/></clipPath><linearGradient id="linear-gradient-18" x1="-174" y1="-290" x2="-173" y2="-290" gradientTransform="matrix(0, -7.52, -7.48, 0, -2152.99, -1286.64)" gradientUnits="userSpaceOnUse"><stop offset="0" stop-color="#005da4"/><stop offset="0.15" stop-color="#005da4"/><stop offset="0.32" stop-color="#007bc0"/><stop offset="0.5" stop-color="#00a1e4"/><stop offset="0.57" stop-color="#05a2e4"/><stop offset="0.65" stop-color="#14a6e4"/><stop offset="0.74" stop-color="#2cace4"/><stop offset="0.83" stop-color="#4eb5e4"/><stop offset="0.92" stop-color="#72bee4"/><stop offset="1" stop-color="#72bee4"/></linearGradient><clipPath id="clip-path-61"><path class="cls-2" d="M17.9,12.91h-.27l-.1,0h-.1l-.08,0h0l0,0h-.06c-1.64.65-2.56,3-4.52,6.84h0a16,16,0,0,0-.41,2.17h1.3a25.83,25.83,0,0,1,4.84-7.52h0a4.07,4.07,0,0,1,.56-1h0a2.05,2.05,0,0,0-.38-.47h0l0,0h-.09l-.05,0h0l0,0h0l-.05,0h-.12l-.11,0H17.9"/></clipPath><clipPath id="clip-path-62"><polygon class="cls-2" points="12.41 23.24 8.12 -1.23 32.45 -5.54 36.74 18.93 12.41 23.24"/></clipPath><linearGradient id="linear-gradient-19" x1="-174" y1="-290" x2="-173" y2="-290" gradientTransform="matrix(-1.43, -8.15, -8.11, 1.44, -2584.39, -980.37)" gradientUnits="userSpaceOnUse"><stop offset="0" stop-color="#005496"/><stop offset="0.1" stop-color="#005496"/><stop offset="1" stop-color="#0083c5"/></linearGradient><clipPath id="clip-path-63"><path class="cls-2" d="M29,15.17c-.38,1.21-.68,2.21-.95,3h0a32,32,0,0,0,3-5.3h0A3.09,3.09,0,0,0,29,15.17"/></clipPath><clipPath id="clip-path-64"><rect class="cls-2" x="28.06" y="5.39" width="12.71" height="12.79"/></clipPath><linearGradient id="linear-gradient-20" x1="-174" y1="-290" x2="-173" y2="-290" gradientTransform="matrix(0, -4.26, -4.24, 0, -1199.46, -724.59)" gradientUnits="userSpaceOnUse"><stop offset="0" stop-color="#00a1e4"/><stop offset="0.47" stop-color="#009fe1"/><stop offset="0.78" stop-color="#0098d8"/><stop offset="0.87" stop-color="#0095d4"/><stop offset="1" stop-color="#0095d4"/></linearGradient><filter id="luminosity-noclip-7" x="0.58" y="7.85" width="37.54" height="34.68" filterUnits="userSpaceOnUse" color-interpolation-filters="sRGB"><feFlood flood-color="#fff" result="bg"/><feBlend in="SourceGraphic" in2="bg"/></filter><mask id="mask-7" x="0.58" y="7.85" width="37.54" height="34.68" maskUnits="userSpaceOnUse"><g class="cls-29"><g class="cls-3"><g class="cls-30"><g class="cls-31"><g class="cls-32"><rect class="cls-33" x="24.43" y="11.92" width="13.7" height="13.78"/></g></g></g></g></g></mask><clipPath id="clip-path-65"><rect class="cls-2" x="27.97" y="12.7" width="5.56" height="8.93"/></clipPath><clipPath id="clip-path-66"><path class="cls-2" d="M28.13,21.56l-.16.07c2-.9,4.41-4.48,5.56-8.93h-.24c-2.63,4.74-3.48,7.91-5.16,8.86"/></clipPath><clipPath id="clip-path-67"><polygon class="cls-2" points="35.07 13.05 29.9 42.53 0.58 37.34 5.75 7.85 35.07 13.05"/></clipPath><linearGradient id="linear-gradient-21" x1="-174" y1="-290" x2="-173" y2="-290" gradientTransform="matrix(-1.72, 9.83, 9.77, 1.73, 2565.87, 2224.88)" gradientUnits="userSpaceOnUse"><stop offset="0" stop-color="#00a4e0"/><stop offset="0.36" stop-color="#00a4e0"/><stop offset="0.96" stop-color="#0089cf"/><stop offset="1" stop-color="#0089cf"/></linearGradient><clipPath id="clip-path-68"><path class="cls-2" d="M32.56,12.7H31.2l-.09.19h0a32,32,0,0,1-3,5.3h0a9.58,9.58,0,0,1-1.28,3h0a1.41,1.41,0,0,0,.67.64h.13l.05,0h.09l.05,0h.06l.1-.05h0l.16-.07h0c1.68-.95,2.53-4.12,5.16-8.86h-.73Z"/></clipPath><clipPath id="clip-path-69"><rect class="cls-2" x="5.52" y="12.68" width="27.74" height="27.89"/></clipPath><linearGradient id="linear-gradient-22" x1="-174" y1="-290" x2="-173" y2="-290" gradientTransform="matrix(0, 9.3, 9.25, 0, 2711.29, 1630.4)" gradientUnits="userSpaceOnUse"><stop offset="0" stop-color="#008dcf"/><stop offset="0.5" stop-color="#0087c8"/><stop offset="0.63" stop-color="#0078b8"/><stop offset="1" stop-color="#00508f"/></linearGradient><filter id="luminosity-noclip-8" x="15.65" y="9.94" width="10.71" height="8.25" filterUnits="userSpaceOnUse" color-interpolation-filters="sRGB"><feFlood flood-color="#fff" result="bg"/><feBlend in="SourceGraphic" in2="bg"/></filter><mask id="mask-8" x="15.65" y="9.94" width="10.71" height="8.25" maskUnits="userSpaceOnUse"><g class="cls-34"><g class="cls-3"><g class="cls-35"><g class="cls-36"><g class="cls-37"><rect class="cls-38" x="15.65" y="9.94" width="5.56" height="3.87"/></g></g></g></g></g></mask><clipPath id="clip-path-70"><rect class="cls-2" x="17.76" y="12.9" width="4.01" height="0.87"/></clipPath><clipPath id="clip-path-71"><path class="cls-2" d="M18,12.91h.16a2,2,0,0,1,1.2.39,2.19,2.19,0,0,1,1.43-.39H18"/></clipPath><clipPath id="clip-path-72"><polygon class="cls-2" points="18.15 11.77 20.84 12.89 20.27 14.29 17.57 13.17 18.15 11.77"/></clipPath><linearGradient id="linear-gradient-23" x1="-174" y1="-290" x2="-173" y2="-290" gradientTransform="matrix(2.13, 0.89, 0.88, -2.14, 644.95, -454.08)" gradientUnits="userSpaceOnUse"><stop offset="0" stop-color="#8ccfec"/><stop offset="0.11" stop-color="#84cdec"/><stop offset="0.28" stop-color="#6ec9eb"/><stop offset="0.5" stop-color="#4ac2ea"/><stop offset="0.7" stop-color="#20bae8"/><stop offset="1" stop-color="#20bae8"/></linearGradient><clipPath id="clip-path-73"><path class="cls-2" d="M20.75,12.9a2.19,2.19,0,0,0-1.43.39,3.37,3.37,0,0,1,.36.3A4.39,4.39,0,0,1,21.2,13a3.66,3.66,0,0,1,.57,0Z"/></clipPath><clipPath id="clip-path-74"><polygon class="cls-2" points="19.03 13.11 24.07 10.81 26.36 15.88 21.32 18.18 19.03 13.11"/></clipPath><linearGradient id="linear-gradient-24" x1="-174" y1="-290" x2="-173" y2="-290" gradientTransform="matrix(1.68, -0.77, -0.76, -1.69, 91, -610.29)" gradientUnits="userSpaceOnUse"><stop offset="0" stop-color="#68c5ea"/><stop offset="0.34" stop-color="#68c5ea"/><stop offset="0.36" stop-color="#64c4ea"/><stop offset="0.66" stop-color="#2ebaea"/><stop offset="0.88" stop-color="#0db4ea"/><stop offset="1" stop-color="#00b2ea"/></linearGradient><filter id="luminosity-noclip-9" x="4.01" y="-1.04" width="39.57" height="40.98" filterUnits="userSpaceOnUse" color-interpolation-filters="sRGB"><feFlood flood-color="#fff" result="bg"/><feBlend in="SourceGraphic" in2="bg"/></filter><mask id="mask-9" x="4.01" y="-1.04" width="39.57" height="40.98" maskUnits="userSpaceOnUse"><g class="cls-39"><g class="cls-3"><g class="cls-40"><g class="cls-41"><g class="cls-42"><rect class="cls-43" x="22" y="-1.04" width="21.57" height="21.7"/></g></g></g></g></g></mask><clipPath id="clip-path-75"><rect class="cls-2" x="26.4" y="12.71" width="4.8" height="7.48"/></clipPath><clipPath id="clip-path-76"><path class="cls-2" d="M28.09,18.2c.27-.82.57-1.82.95-3a3.09,3.09,0,0,1,2.07-2.27l.09-.19a3.17,3.17,0,0,0-3.14,2.45c-.76,2.44-1.22,4-1.66,5a13.94,13.94,0,0,0,1.69-2"/></clipPath><clipPath id="clip-path-77"><rect class="cls-2" x="4.01" y="12.66" width="27.14" height="27.28"/></clipPath><linearGradient id="linear-gradient-25" x1="-174" y1="-290" x2="-173" y2="-290" gradientTransform="matrix(0, 9.09, 9.04, 0, 2651.29, 1595.46)" gradientUnits="userSpaceOnUse"><stop offset="0" stop-color="#00a5e5"/><stop offset="1" stop-color="#00a8e3"/></linearGradient></defs><title>.net2-new</title><polygon class="cls-44" points="8.84 6.82 36.32 6.82 36.32 31.54 27.64 40.26 8.84 40.26 8.84 6.82"/><polygon class="cls-45" points="27.64 31.54 36.32 31.54 27.64 40.26 27.64 31.54"/><path class="cls-46" d="M8.12,26.45V41H28.36L37,32.26V6.09H8.12v7.27M28.36,38.93V32.26H35Zm7.23-8.12H26.92v8.73H9.57v-32h26Z"/><path class="cls-47" d="M41.25,36.11v-2l-2.43-.4a5.9,5.9,0,0,0-.67-1.62l1.42-2-1.45-1.45-2,1.44a5.52,5.52,0,0,0-1.62-.68l-.42-2.42H32l-.39,2.41A6.15,6.15,0,0,0,30,30l-2-1.42L26.59,30,28,32a6,6,0,0,0-.68,1.63l-2.4.4v2l2.4.43A5.57,5.57,0,0,0,28,38.17l-1.42,2L28,41.6l2-1.4a5.77,5.77,0,0,0,1.62.67l.4,2.42h2.05l.42-2.42a6,6,0,0,0,1.62-.68l2,1.41,1.44-1.44-1.44-2a5.77,5.77,0,0,0,.67-1.62ZM33.08,38a2.85,2.85,0,1,1,2.85-2.85A2.86,2.86,0,0,1,33.08,38Z"/><ellipse class="cls-48" cx="33.08" cy="35.11" rx="2.59" ry="2.61"/><g class="cls-49"><g class="cls-50"><rect class="cls-51" x="19.5" y="14.34" width="4.18" height="7.55"/></g></g><g class="cls-52"><g class="cls-53"><rect class="cls-54" x="-10.26" y="14.04" width="34.42" height="34.61"/></g></g><path class="cls-55" d="M21.77,12.9a3.66,3.66,0,0,0-.57,0,4.39,4.39,0,0,0-1.52.64,3.6,3.6,0,0,1,.39.47,5.68,5.68,0,0,1,1.56-1,3.83,3.83,0,0,1,.58-.16,2.12,2.12,0,0,0-.44,0"/><g class="cls-56"><g class="cls-57"><g class="cls-58"><g class="cls-59"><rect class="cls-60" x="22.22" y="-6.79" width="27.39" height="27.54"/></g></g></g></g><g class="cls-61"><g class="cls-62"><path class="cls-63" d="M22.21,13a2.12,2.12,0,0,0-.44,0h1a3.27,3.27,0,0,0-.53,0"/></g></g><path class="cls-64" d="M25.74,21.29,25.45,21a4.62,4.62,0,0,1-1.25.67,1.63,1.63,0,0,0,.47.16,1.75,1.75,0,0,0,.4,0,2.59,2.59,0,0,0,1.14-.2,2.35,2.35,0,0,1-.47-.36"/><g class="cls-65"><g class="cls-66"><rect class="cls-67" x="-9.93" y="12.99" width="35.74" height="35.94"/></g></g><g class="cls-68"><g class="cls-69"><rect class="cls-70" x="20.11" y="13.14" width="5.41" height="8.53"/></g></g><g class="cls-71"><g class="cls-72"><path class="cls-73" d="M18.47,14.55c-.24.56-.49,1.29-.79,2.24a15.93,15.93,0,0,1,1.79-2.17,5.12,5.12,0,0,0-.27-.7c-.24.19-.48.4-.73.63"/></g></g><path class="cls-74" d="M19.42,13.76l-.22.16a5.12,5.12,0,0,1,.27.7l.32-.31a5.85,5.85,0,0,0-.37-.55"/><path class="cls-75" d="M19.68,13.59l-.26.17a5.85,5.85,0,0,1,.37.55l.28-.25a3.6,3.6,0,0,0-.39-.47"/><g class="cls-76"><g class="cls-77"><g class="cls-78"><g class="cls-79"><rect class="cls-80" x="27.48" y="-4.98" width="26.68" height="26.84"/></g></g></g></g><g class="cls-81"><g class="cls-82"><path class="cls-83" d="M17.26,13.08h.06l0,0h0l.08,0h.1l.1,0h.13c-2.15,0-5.11,4-6.44,9.19h.26c.43-.76.81-1.49,1.16-2.17.93-3.67,2.83-6.18,4.52-6.84"/></g></g><path class="cls-84" d="M18.47,14.55c.25-.23.49-.44.73-.63a3.59,3.59,0,0,0-.17-.34,4.07,4.07,0,0,0-.56,1"/><path class="cls-84" d="M18.65,13.11a2.05,2.05,0,0,1,.38.47l.11-.12a2.35,2.35,0,0,0-.52-.37l0,0h0"/><g class="cls-85"><g class="cls-86"><rect class="cls-87" x="12.7" y="-7.58" width="27.32" height="27.48"/></g></g><path class="cls-88" d="M19.14,13.46l-.11.12a3.59,3.59,0,0,1,.17.34l.22-.16a2.68,2.68,0,0,0-.28-.3"/><g class="cls-89"><g class="cls-90"><g class="cls-91"><g class="cls-92"><rect class="cls-93" x="13.49" y="-4.61" width="26.55" height="26.7"/></g></g></g></g><g class="cls-94"><g class="cls-95"><rect class="cls-96" x="13.59" y="14.51" width="4.85" height="7.52"/></g></g><path class="cls-83" d="M12.74,19.92c-.35.68-.74,1.41-1.16,2.17h.75a16,16,0,0,1,.41-2.17"/><g class="cls-97"><g class="cls-98"><polygon class="cls-99" points="12.41 23.24 8.12 -1.23 32.45 -5.54 36.74 18.93 12.41 23.24"/></g></g><g class="cls-100"><g class="cls-101"><rect class="cls-102" x="28.06" y="5.39" width="12.71" height="12.79"/></g></g><g class="cls-103"><g class="cls-104"><g class="cls-105"><g class="cls-106"><polygon class="cls-107" points="35.07 13.05 29.9 42.53 0.58 37.34 5.75 7.85 35.07 13.05"/></g></g></g></g><path class="cls-108" d="M26.81,21.16a9.58,9.58,0,0,0,1.28-3,13.94,13.94,0,0,1-1.69,2h0a5.24,5.24,0,0,0,.41,1"/><path class="cls-64" d="M26.81,21.16a1.71,1.71,0,0,1-.48.42l-.12.07a1.8,1.8,0,0,0,.62.19h.55l.1,0a1.41,1.41,0,0,1-.67-.64"/><path class="cls-109" d="M23.1,21.85a3.66,3.66,0,0,0,.57-.05,2.46,2.46,0,0,0,.53-.15,1.63,1.63,0,0,0,.47.16,1.75,1.75,0,0,0,.4,0Z"/><path class="cls-109" d="M25.07,21.85a2.59,2.59,0,0,0,1.14-.2,1.8,1.8,0,0,0,.62.19H25.07Z"/><path class="cls-110" d="M27,21.85h.34l.1,0h0a.87.87,0,0,0,.28.05Z"/><path class="cls-111" d="M26.4,20.19h0c-.21.2-.41.38-.62.55l-.33.24.29.31a2.35,2.35,0,0,0,.47.36l.12-.07a1.71,1.71,0,0,0,.48-.42,5.24,5.24,0,0,1-.41-1"/><g class="cls-112"><g class="cls-113"><rect class="cls-114" x="5.52" y="12.68" width="27.74" height="27.89"/></g></g><g class="cls-115"><g class="cls-116"><path class="cls-117" d="M18,12.91h.18l.11,0h.12l.05,0h0l0,0h0l.05,0h.09a2.35,2.35,0,0,1,.52.37l.18-.17a2,2,0,0,0-1.2-.39H18"/><path class="cls-118" d="M19.14,13.46a2.68,2.68,0,0,1,.28.3l.26-.17a3.37,3.37,0,0,0-.36-.3l-.18.17"/><g class="cls-119"><g class="cls-120"><polygon class="cls-121" points="18.15 11.77 20.84 12.89 20.27 14.29 17.57 13.17 18.15 11.77"/></g></g><g class="cls-122"><g class="cls-123"><polygon class="cls-124" points="19.03 13.11 24.07 10.81 26.36 15.88 21.32 18.18 19.03 13.11"/></g></g></g></g><g class="cls-125"><g class="cls-126"><g class="cls-127"><g class="cls-128"><rect class="cls-129" x="4.01" y="12.66" width="27.14" height="27.28"/></g></g></g></g><path class="cls-130" d="M11.67,29.76a.43.43,0,0,0-.29.73.37.37,0,0,0,.29.13.42.42,0,0,0,.31-.13.41.41,0,0,0,.12-.3.44.44,0,0,0-.12-.3A.46.46,0,0,0,11.67,29.76Z"/><path class="cls-130" d="M16.74,28.93a7.38,7.38,0,0,0,0,.8h0a4.19,4.19,0,0,0-.22-.37l-2.7-4.25H13v5.42h.63V26.61a5.48,5.48,0,0,0,0-.74h0a2.69,2.69,0,0,0,.17.34l2.79,4.32h.76V25.11h-.62Z"/><polygon class="cls-130" points="19.19 28.06 21.14 28.06 21.14 27.49 19.19 27.49 19.19 25.68 21.29 25.68 21.29 25.11 18.56 25.11 18.56 30.53 21.42 30.53 21.42 29.96 19.19 29.96 19.19 28.06"/><polygon class="cls-130" points="22.01 25.68 23.57 25.68 23.57 30.53 24.2 30.53 24.2 25.68 25.75 25.68 25.75 25.11 22.01 25.11 22.01 25.68"/><rect class="cls-131" x="1" y="1" width="46" height="46" rx="4" ry="4"/></svg>