<svg id="Layer_1" data-name="Layer 1" xmlns="http://www.w3.org/2000/svg" viewBox="0 0 48 48"><defs><style>.cls-1{fill:#a2d8dd;}.cls-2{fill:#3f4d54;}.cls-3{fill:#8d9aad;stroke:#000;}.cls-4{fill:#fff;}</style></defs><title>email1</title><rect class="cls-1" x="4.66" y="12.48" width="36.71" height="23.12"/><path class="cls-2" d="M42,13.24v-.15a2.42,2.42,0,0,0-.7-1.64l0,0a0,0,0,0,1,0-.05c-.1-.1-.2-.15-.3-.25s0,0-.1,0l-.35-.15c-.05,0-.05-.05-.1-.05a1.46,1.46,0,0,0-.45-.1h-.1c-.15,0-.35-.05-.55-.05H6.7a2.43,2.43,0,0,0-.6.05A.17.17,0,0,0,6,10.8c-.15,0-.3,0-.4.1s0,0-.1,0l-.35.15,0,.05c-.1,0-.2.15-.3.2l-.15.15A2.31,2.31,0,0,0,4,12.84V35.16A2.37,2.37,0,0,0,5,36.8a2.87,2.87,0,0,0,1.64.5H39.4a1.7,1.7,0,0,0,.5,0H40c.15,0,.3,0,.4-.1h.05A2.31,2.31,0,0,0,42,34.91V13.24Zm-3.19-.7L23.1,27.8l-3.59-3.48L7.19,12.54Zm-33,21.92V13.78L17.47,24.92Zm16.76,1H7.49l11.32-9.24,3.64,3.53a1,1,0,0,0,.45.25h.31c.14-.05.35-.1.44-.25l3.44-3.33,11.37,9H22.61Zm17.54-1L28.49,25.12,40.15,13.78Zm0,0"/><path class="cls-3" d="M43.89,33.05V30.92l-2.51-.41a6.2,6.2,0,0,0-.69-1.68l1.47-2.1-1.5-1.51-2.06,1.5a5.59,5.59,0,0,0-1.67-.7l-.44-2.52H34.37L34,26a6.07,6.07,0,0,0-1.68.69l-2.06-1.48-1.49,1.51,1.44,2.08a6.22,6.22,0,0,0-.7,1.7L27,30.92v2.13l2.48.44a6.28,6.28,0,0,0,.7,1.69l-1.46,2.07,1.49,1.5,2.07-1.46A5.92,5.92,0,0,0,34,38l.41,2.51h2.12L36.93,38a6,6,0,0,0,1.67-.7l2.09,1.47,1.49-1.5-1.49-2.08a6.2,6.2,0,0,0,.69-1.68ZM35.45,35a3,3,0,1,1,2.94-3A3,3,0,0,1,35.45,35Z"/><ellipse class="cls-4" cx="35.45" cy="32" rx="2.68" ry="2.71"/></svg>