<svg id="Layer_1" data-name="Layer 1" xmlns="http://www.w3.org/2000/svg" viewBox="0 0 48 48"><defs><style>.cls-1{fill:none;stroke:#8d9aad;stroke-width:2px;}.cls-1,.cls-5{stroke-miterlimit:10;}.cls-2{fill:#a2d8dd;}.cls-3{fill:#3f4d54;}.cls-4{fill:#fff;}.cls-5{fill:#8d9aad;stroke:#171f28;}</style></defs><title>email2</title><rect class="cls-1" x="1" y="1" width="46" height="46" rx="4" ry="4"/><rect class="cls-2" x="7.57" y="13.54" width="31.88" height="19.99"/><path class="cls-3" d="M40,14.19v-.12a2.07,2.07,0,0,0-.61-1.42l0-.05a0,0,0,0,1,0,0c-.09-.09-.18-.13-.26-.21s0,0-.09,0l-.31-.12s0,0-.09,0a1.31,1.31,0,0,0-.38-.09h-.09c-.13,0-.31,0-.48,0H9.34a2.32,2.32,0,0,0-.52,0,.15.15,0,0,0-.13.05,1.82,1.82,0,0,0-.34.09s0,0-.09,0L8,12.35l0,0c-.09,0-.17.13-.26.17l-.13.13A2,2,0,0,0,7,13.85v19.3a2.1,2.1,0,0,0,.82,1.42A2.55,2.55,0,0,0,9.25,35H37.74a1.64,1.64,0,0,0,.44,0h.08c.13-.05.26-.05.35-.09h0A2,2,0,0,0,40,32.93V14.19Zm-2.77-.6L23.59,26.79l-3.12-3L9.77,13.59Zm-28.62,19V14.67l10.08,9.62Zm14.55.9H10l9.83-8L23,28.5a.92.92,0,0,0,.39.22h.27a.7.7,0,0,0,.39-.22l3-2.88,9.87,7.83Zm15.24-.86L28.27,24.47l10.13-9.8Zm0,0"/><ellipse class="cls-4" cx="34.5" cy="30.58" rx="4.71" ry="4.58"/><path class="cls-5" d="M42.5,32.48v-2l-2.38-.39a5.92,5.92,0,0,0-.65-1.58l1.38-2-1.41-1.42-1.95,1.41a5.57,5.57,0,0,0-1.59-.66l-.42-2.37h-2l-.38,2.36a5.72,5.72,0,0,0-1.59.65l-2-1.39-1.41,1.42,1.37,1.95a5.78,5.78,0,0,0-.67,1.6l-2.35.39v2l2.35.42a5.63,5.63,0,0,0,.66,1.6l-1.38,1.94,1.41,1.41,2-1.37a5.69,5.69,0,0,0,1.59.66l.39,2.36h2l.42-2.37a5.87,5.87,0,0,0,1.59-.66l2,1.38,1.42-1.41-1.41-2a5.78,5.78,0,0,0,.65-1.58Zm-8,1.81a2.79,2.79,0,1,1,2.79-2.79A2.79,2.79,0,0,1,34.5,34.29Z"/></svg>