<svg id="Layer_1" data-name="Layer 1" xmlns="http://www.w3.org/2000/svg" viewBox="0 0 48 48"><defs><style>.cls-1{fill:#fff;}.cls-2{fill:#e24b4b;}.cls-3{fill:#3f4d54;}</style></defs><title>stop1</title><rect class="cls-1" x="16.5" y="25.5" width="15" height="15"/><ellipse class="cls-2" cx="24.15" cy="15.64" rx="8.17" ry="7.83"/><path class="cls-3" d="M33.27,5H14.73a1.44,1.44,0,0,0-1.47,1.41V41.59A1.44,1.44,0,0,0,14.73,43H33.27a1.44,1.44,0,0,0,1.47-1.41V6.41A1.44,1.44,0,0,0,33.27,5ZM24,39.19a4.82,4.82,0,1,1,5-4.82,5,5,0,0,1-5,4.82Zm6.6-6.2A7,7,0,0,0,24,27.63,7,7,0,0,0,17.4,33c-1-3.82,2.73-7.26,6.54-7.3,3.15,0,6.48,2.22,6.77,5.38,0-.1.06.4,0,0a4.78,4.78,0,0,1-.1,1.92ZM19,17.48a5,5,0,0,1,10.07,0,5,5,0,0,1-10.07,0ZM30.61,16.1A7,7,0,0,0,24,10.74a7,7,0,0,0-6.6,5.36c-1-3.82,2.73-7.25,6.54-7.29,3.15,0,6.48,2.22,6.77,5.38,0-.11.06.4,0,0a4.74,4.74,0,0,1-.1,1.91Zm0,0"/></svg>