<svg id="Layer_1" data-name="Layer 1" xmlns="http://www.w3.org/2000/svg" viewBox="0 0 48 48"><defs><style>.cls-1{fill:#316cb3;}</style></defs><title>group1</title><circle class="cls-1" cx="24" cy="9.75" r="4.75"/><path class="cls-1" d="M27.68,16.87H26.37a1.22,1.22,0,0,0-.84.35L24,18.76l-1.53-1.54a1.23,1.23,0,0,0-.85-.35H20.33A2.37,2.37,0,0,0,18,19l-1.08,8.43a1.24,1.24,0,0,0,.29.94,1.21,1.21,0,0,0,.89.4h1.28l1,12.11A2.36,2.36,0,0,0,22.7,43h2.6a2.38,2.38,0,0,0,2.37-2.16l1-12.09h1.28a1.21,1.21,0,0,0,.89-.4,1.16,1.16,0,0,0,.28-.94L30,19A2.37,2.37,0,0,0,27.68,16.87Z"/><circle class="cls-1" cx="35.87" cy="9.75" r="4.75"/><path class="cls-1" d="M12.12,5a4.75,4.75,0,1,0,4.75,4.75h0A4.75,4.75,0,0,0,12.12,5Z"/><path class="cls-1" d="M41.91,19a2.36,2.36,0,0,0-2.36-2.14h-1.3a1.19,1.19,0,0,0-.84.35l-1.54,1.54-1.53-1.54a1.19,1.19,0,0,0-.84-.35H32.2a2.84,2.84,0,0,0-.42.08,4.54,4.54,0,0,1,.62,1.79l1.07,8.37a3.52,3.52,0,0,1-.87,2.82,3.34,3.34,0,0,1-1.17.83l.78,7.73a2.37,2.37,0,0,0,2.37,2.13h2.6a2.37,2.37,0,0,0,2.36-2.15l1-9.72h1.28A1.19,1.19,0,0,0,43,27.41Z"/><path class="cls-1" d="M14.53,27.11l1.08-8.43A4.34,4.34,0,0,1,16.2,17a2.57,2.57,0,0,0-.4-.08H14.5a1.19,1.19,0,0,0-.84.35l-1.54,1.54-1.53-1.54a1.19,1.19,0,0,0-.84-.35H8.45A2.37,2.37,0,0,0,6.09,19L5,27.41a1.19,1.19,0,0,0,1.18,1.34H7.47l1,9.74a2.37,2.37,0,0,0,2.37,2.13h2.6a2.37,2.37,0,0,0,2.36-2.15l.79-7.71a3.56,3.56,0,0,1-1.19-.85A3.52,3.52,0,0,1,14.53,27.11Z"/></svg>