<svg id="Layer_1" data-name="Layer 1" xmlns="http://www.w3.org/2000/svg" viewBox="0 0 16 16"><defs><style>.cls-1{fill:#316cb3;}.cls-2,.cls-3{fill:#fff;}.cls-2{stroke:#262d33;stroke-miterlimit:10;stroke-width:0.5px;}.cls-4{fill:#262d33;}</style></defs><title>reassign-urgent</title><ellipse class="cls-1" cx="8" cy="3.43" rx="3.5" ry="3.43"/><path class="cls-1" d="M10.71,7.43h-1a.89.89,0,0,0-.62.25L8,8.79,6.87,7.68a.9.9,0,0,0-.62-.25h-1A1.73,1.73,0,0,0,3.55,9L2.76,15a.84.84,0,0,0,.21.68.88.88,0,0,0,.65.29h8.75a.9.9,0,0,0,.66-.29.8.8,0,0,0,.21-.68L12.45,9A1.73,1.73,0,0,0,10.71,7.43Z"/><path class="cls-2" d="M7.73,12.68a.32.32,0,0,0,.07-.22.31.31,0,0,0-.07-.21L5.44,9.82a.21.21,0,0,0-.17-.09.19.19,0,0,0-.16.09A.31.31,0,0,0,5,10v1.22H4.21a6.11,6.11,0,0,1-.64,0,3.78,3.78,0,0,1-.57-.1,2,2,0,0,1-.49-.2,1.76,1.76,0,0,1-.39-.34,1.49,1.49,0,0,1-.29-.47,2.87,2.87,0,0,1-.18-.66,5.61,5.61,0,0,1-.06-.86c0-.18,0-.37,0-.59a1,1,0,0,0,0-.11.62.62,0,0,0,0-.12.21.21,0,0,0,0-.12A.11.11,0,0,0,1.5,7.6a.14.14,0,0,0-.1.08.58.58,0,0,0,0,.11s0,.08-.05.14,0,.09,0,.11A6.81,6.81,0,0,0,.8,10.18,5.58,5.58,0,0,0,1,11.77c.4,1.27,1.47,1.91,3.22,1.91H5V14.9a.31.31,0,0,0,.07.21.19.19,0,0,0,.16.09.21.21,0,0,0,.17-.09l2.29-2.43Zm-.41.07"/><circle class="cls-3" cx="12.5" cy="13.9" r="2.1"/><path class="cls-4" d="M15.5,13a1.32,1.32,0,0,0-.08-.33A4.71,4.71,0,0,1,16,10a4.59,4.59,0,0,0-1.92.59l-.06-.1a6.89,6.89,0,0,1,.4-2.11,7.34,7.34,0,0,0-1.23.71,2.42,2.42,0,0,1,0-2.07C10.55,8.87,9,11,9,12.64,9,14,9.32,16,12.48,16c1.86,0,2.81-.71,3-2.1l0,0c0-.06,0-.12,0-.18A4.75,4.75,0,0,0,15.5,13Zm-1.56,1.49c-.2.35-.31.46-1.62.49s-1.55-.24-1.8-.69a1.56,1.56,0,0,1,.14-2c-.05.09-.32.91.95,1.58-.63-.78.5-1.7.92-2.13A6,6,0,0,0,13,13.89a3.63,3.63,0,0,0,1.24-2A2.65,2.65,0,0,1,13.94,14.49Z"/></svg>