<svg id="Layer_1" data-name="Layer 1" xmlns="http://www.w3.org/2000/svg" viewBox="0 0 48 48"><defs><style>.cls-1{fill:none;stroke:#8d9aad;stroke-miterlimit:10;stroke-width:2px;}.cls-2{fill:#fff;}.cls-3{fill:#1372b8;}.cls-4{fill:#8d9aad;stroke:#000;}</style></defs><title>sharepoint2</title><rect class="cls-1" x="1" y="1" width="46" height="46" rx="4" ry="4"/><rect class="cls-2" x="9.36" y="15.68" width="10.42" height="15.63"/><path class="cls-3" d="M36.62,20.07a3.39,3.39,0,0,0-.64.07,8.93,8.93,0,0,0-4.31-4.93c0-.14,0-.28,0-.42a3.23,3.23,0,0,0-3.12-3.34,3,3,0,0,0-1.94.72V17.4a3,3,0,0,0,1.94.72,3.08,3.08,0,0,0,2.57-1.44,7.47,7.47,0,0,1,3.51,4.14,3.46,3.46,0,0,0,0,5.19,7.42,7.42,0,0,1-3.53,4.22,3.09,3.09,0,0,0-2.57-1.45,3,3,0,0,0-1.94.72v5.24a3,3,0,0,0,1.94.72,3.24,3.24,0,0,0,3.12-3.34c0-.14,0-.28,0-.42a8.92,8.92,0,0,0,4.34-5,3.08,3.08,0,0,0,.61.06,3.34,3.34,0,0,0,0-6.67Z"/><path class="cls-3" d="M6.79,10.52l0,26L24.91,40V7ZM17,30c-1.48,1.15-3.42.67-5,0,0-1,0-1.93-.07-2.91,1,.79,2.48,2,3.68.88.92-1.65-.9-2.71-1.94-3.51a4.48,4.48,0,0,1-.16-7c1.28-.86,2.84-.59,4.25-.38l.06,2.74c-1.17-.39-2.67-1.19-3.63.09-.68,1.87,1.45,2.58,2.48,3.56A4.38,4.38,0,0,1,17,30Z"/><path class="cls-4" d="M40.75,33.48v-2l-2.38-.39a5.92,5.92,0,0,0-.65-1.58l1.38-2-1.41-1.42-1.95,1.41a5.57,5.57,0,0,0-1.59-.66l-.42-2.37h-2l-.38,2.36a5.72,5.72,0,0,0-1.59.65l-2-1.39L26.4,27.54l1.37,1.95a5.78,5.78,0,0,0-.67,1.6l-2.35.39v2l2.35.42a5.63,5.63,0,0,0,.66,1.6l-1.38,1.94,1.41,1.41,2-1.37a5.69,5.69,0,0,0,1.59.66l.39,2.36h2l.42-2.37a5.87,5.87,0,0,0,1.59-.66l2,1.38,1.42-1.41-1.41-2a5.78,5.78,0,0,0,.65-1.58Zm-8,1.81a2.79,2.79,0,1,1,2.79-2.79A2.79,2.79,0,0,1,32.75,35.29Z"/><ellipse class="cls-2" cx="32.75" cy="32.5" rx="2.54" ry="2.55"/></svg>