<svg id="Layer_1" data-name="Layer 1" xmlns="http://www.w3.org/2000/svg" xmlns:xlink="http://www.w3.org/1999/xlink" viewBox="0 0 16 16"><defs><style>.cls-1{fill:none;}.cls-2{fill:#262d33;}.cls-3{isolation:isolate;}.cls-4{clip-path:url(#clip-path);}.cls-5{fill:#316cb3;}</style><clipPath id="clip-path"><rect class="cls-1" x="4.55" y="11.44" width="5.45" height="3.37"/></clipPath></defs><title>skip</title><polygon class="cls-2" points="15.14 13.65 15.89 13.13 15.14 12.61 15.14 12.6 15.11 12.6 12.3 10.67 12.3 12.6 10.23 12.6 10.23 13.66 12.3 13.66 12.3 15.59 15.11 13.66 15.14 13.66 15.14 13.65"/><rect class="cls-2" x="0.11" y="12.6" width="3.78" height="1.07"/><g class="cls-3"><g class="cls-4"><path class="cls-2" d="M9.3,11.44a.78.78,0,0,0-.35.08l-1.33.79a.76.76,0,0,1-.68,0l-1.32-.79a.78.78,0,0,0-.35-.08.77.77,0,0,0-.34.08l-.38.23a.21.21,0,0,0,0,.4l1.34.78a.22.22,0,0,1,0,.4l-1.34.78a.21.21,0,0,0,0,.4l.38.23a.77.77,0,0,0,.34.08.78.78,0,0,0,.35-.08L6.94,14a.76.76,0,0,1,.68,0L9,14.74a.78.78,0,0,0,.35.08.7.7,0,0,0,.33-.08l.38-.23a.21.21,0,0,0,0-.4l-1.33-.78a.22.22,0,0,1,0-.4L10,12.15a.21.21,0,0,0,0-.4l-.38-.23a.7.7,0,0,0-.33-.08"/></g></g><ellipse class="cls-5" cx="8" cy="2.14" rx="2.19" ry="2.14"/><path class="cls-5" d="M9.69,4.64h-.6a.55.55,0,0,0-.38.16L8,5.49,7.29,4.8a.55.55,0,0,0-.38-.16h-.6a1.09,1.09,0,0,0-1.09,1L4.72,9.4a.52.52,0,0,0,.14.42.56.56,0,0,0,.41.18h5.46a.56.56,0,0,0,.41-.18.52.52,0,0,0,.14-.42l-.5-3.79A1.09,1.09,0,0,0,9.69,4.64Z"/></svg>