<svg id="Layer_1" data-name="Layer 1" xmlns="http://www.w3.org/2000/svg" viewBox="0 0 48 48"><defs><style>.cls-1{fill:#316cb3;}.cls-2{fill:none;stroke:#8d9aad;stroke-miterlimit:10;stroke-width:2px;}</style></defs><title>user2</title><ellipse class="cls-1" cx="24" cy="10.99" rx="4.45" ry="4.34"/><path class="cls-1" d="M27.45,17.49H26.23a1.15,1.15,0,0,0-.79.32L24,19.21l-1.44-1.4a1.15,1.15,0,0,0-.79-.32H20.56a2.2,2.2,0,0,0-2.22,1.93l-1,7.7a1.07,1.07,0,0,0,.27.85,1.13,1.13,0,0,0,.83.37h1.21l.93,11.06a2.19,2.19,0,0,0,2.21,2h2.44a2.21,2.21,0,0,0,2.22-2l.93-11h1.2A1.13,1.13,0,0,0,30.4,28a1.08,1.08,0,0,0,.27-.86l-1-7.66A2.2,2.2,0,0,0,27.45,17.49Z"/><rect class="cls-2" x="1" y="1" width="46" height="46" rx="4" ry="4"/></svg>