<svg id="Layer_1" data-name="Layer 1" xmlns="http://www.w3.org/2000/svg" viewBox="0 0 48 48"><defs><style>.cls-1{fill:#fff;}.cls-2{fill:#265d9c;fill-rule:evenodd;}.cls-3{fill:#8d9aad;stroke:#000;}</style></defs><title>word1</title><rect class="cls-1" x="6" y="10" width="34" height="24"/><path class="cls-2" d="M40.35,8.25H26.6V5L4,8.5V39l22.6,4V38.28H40.35A1.58,1.58,0,0,0,42,36.79v-27A1.58,1.58,0,0,0,40.35,8.25ZM40.56,37h-14V35.25H39.66V33.41H26.54v-2.5H39.66V29.4H26.5V26.93H39.66V25.2H26.46l0-2.34H39.66v-1.5H26.43v-2.7H39.66v-1.5H26.43V14.33H39.66v-1H26.43V9.66H40.56Z"/><polygon class="cls-1" points="10.18 29.74 12.75 29.74 14.62 21.26 16.25 29.74 18.7 29.74 21.34 17.32 19.17 17.32 17.65 26.93 15.76 18.27 13.68 18.27 11.7 26.81 10.18 18.27 8.19 18.27 10.18 29.74"/><path class="cls-3" d="M43.39,36.05V33.92l-2.51-.41a6.2,6.2,0,0,0-.69-1.68l1.47-2.1-1.5-1.51-2.06,1.5a5.59,5.59,0,0,0-1.67-.7L36,26.5H33.87L33.47,29a6.07,6.07,0,0,0-1.68.69l-2.06-1.48-1.49,1.51,1.44,2.08a6.22,6.22,0,0,0-.7,1.7l-2.48.41v2.13l2.48.44a6.28,6.28,0,0,0,.7,1.69l-1.46,2.07,1.49,1.5,2.07-1.46a5.92,5.92,0,0,0,1.68.7l.41,2.51H36L36.43,41a6,6,0,0,0,1.67-.7l2.09,1.47,1.49-1.5-1.49-2.08a6.2,6.2,0,0,0,.69-1.68ZM35,38a3,3,0,1,1,2.94-3A3,3,0,0,1,35,38Z"/><ellipse class="cls-1" cx="34.95" cy="35" rx="2.68" ry="2.71"/></svg>