<svg id="Layer_1" data-name="Layer 1" xmlns="http://www.w3.org/2000/svg" viewBox="0 0 48 48"><defs><style>.cls-1,.cls-3{fill:none;}.cls-1{stroke:#8d9aad;stroke-width:2px;}.cls-1,.cls-6{stroke-miterlimit:10;}.cls-2{fill:#fff;}.cls-4{fill:#3243bf;}.cls-5{fill:#3f4d54;}.cls-6{fill:#8d9aad;stroke:#171f28;}</style></defs><title>web2</title><rect class="cls-1" x="1" y="1" width="46" height="46" rx="4" ry="4"/><circle class="cls-2" cx="21.25" cy="23" r="16.5"/><rect class="cls-3" x="4.75" y="6.5" width="33" height="33"/><path class="cls-4" d="M15.07,20.74,13,25.54a.34.34,0,0,1-.33.19H11.55a.34.34,0,0,1-.32-.19l-1-2.29c-.1-.23-.18-.44-.27-.66-.09.24-.19.46-.28.67L8.61,25.54a.34.34,0,0,1-.32.19H7.21a.35.35,0,0,1-.33-.2l-2-4.79a.26.26,0,0,1,0-.28.33.33,0,0,1,.28-.13H6.45a.33.33,0,0,1,.33.21L7.65,23l.2.58L8.1,23l1.07-2.45a.34.34,0,0,1,.32-.19h1a.35.35,0,0,1,.32.19l1,2.4.25.61c.06-.18.13-.37.21-.59l.94-2.41a.36.36,0,0,1,.33-.21h1.17a.36.36,0,0,1,.29.14A.26.26,0,0,1,15.07,20.74Zm11.32,0-2.11,4.8a.34.34,0,0,1-.32.19H22.87a.34.34,0,0,1-.32-.19l-1-2.29-.28-.66c-.09.24-.18.46-.28.67l-1.06,2.28a.34.34,0,0,1-.32.19H18.53a.35.35,0,0,1-.33-.2l-2-4.79a.28.28,0,0,1,.05-.28.36.36,0,0,1,.28-.13h1.22a.33.33,0,0,1,.33.21L19,23c.07.2.14.4.21.58.07-.18.15-.38.24-.59l1.07-2.45a.34.34,0,0,1,.32-.19h1a.37.37,0,0,1,.33.19l1,2.4.25.61c.06-.18.13-.37.21-.59l.94-2.41a.36.36,0,0,1,.33-.21h1.18a.34.34,0,0,1,.28.14A.24.24,0,0,1,26.39,20.74Zm11.33,0-2.11,4.8a.36.36,0,0,1-.33.19H34.2a.34.34,0,0,1-.33-.19l-1-2.29c-.1-.23-.19-.44-.27-.66-.09.24-.19.46-.29.67l-1.05,2.28a.35.35,0,0,1-.33.19H29.85a.35.35,0,0,1-.33-.2l-2-4.79a.26.26,0,0,1,0-.28.34.34,0,0,1,.29-.13h1.21a.35.35,0,0,1,.34.21L30.29,23c.08.2.14.4.21.58.07-.18.15-.38.24-.59l1.07-2.45a.34.34,0,0,1,.33-.19h1a.36.36,0,0,1,.33.19l1,2.4c.09.22.18.42.25.61.06-.18.13-.37.22-.59l.93-2.41a.36.36,0,0,1,.33-.21h1.18a.36.36,0,0,1,.29.14A.28.28,0,0,1,37.72,20.74Z"/><path class="cls-5" d="M8.25,17.92a14,14,0,0,1,1.34-2.58,2,2,0,0,0,.24,0h2.38a24.8,24.8,0,0,0-.62,2.54H14.2a21.44,21.44,0,0,1,.71-2.54H27.59a21.44,21.44,0,0,1,.71,2.54h2.61a24.8,24.8,0,0,0-.62-2.54h2.38a2,2,0,0,0,.24,0,14,14,0,0,1,1.34,2.58h2.69a16.49,16.49,0,0,0-31.38,0ZM30.8,12.85H29.29a13.76,13.76,0,0,0-1.08-1.93A13.63,13.63,0,0,1,30.8,12.85ZM21.25,9c2,0,3.79,1.46,5.16,3.81H16.09C17.46,10.5,19.28,9,21.25,9Zm-7,1.88a16.12,16.12,0,0,0-1.08,1.93H11.7A13.89,13.89,0,0,1,14.28,10.92Z"/><path class="cls-5" d="M34.25,28.08a14.34,14.34,0,0,1-1.34,2.58,2,2,0,0,0-.24,0H30.29a24.8,24.8,0,0,0,.62-2.54H28.3a23.53,23.53,0,0,1-.71,2.54H14.91a21.44,21.44,0,0,1-.71-2.54H11.59a24.8,24.8,0,0,0,.62,2.54H9.83a2,2,0,0,0-.24,0,14.34,14.34,0,0,1-1.34-2.58H5.56a16.49,16.49,0,0,0,31.38,0ZM11.7,33.15h1.51a14.81,14.81,0,0,0,1.07,1.93A13.89,13.89,0,0,1,11.7,33.15ZM21.25,37c-2,0-3.79-1.46-5.16-3.81H26.4C25,35.5,23.22,37,21.25,37Zm7-1.88a16.12,16.12,0,0,0,1.08-1.93h1.5A13.89,13.89,0,0,1,28.22,35.08Z"/><ellipse class="cls-2" cx="34.75" cy="32.08" rx="4.71" ry="4.58"/><path class="cls-6" d="M42.75,34V32l-2.38-.39A5.92,5.92,0,0,0,39.72,30l1.38-2-1.41-1.42L37.74,28a5.57,5.57,0,0,0-1.59-.66L35.73,25h-2l-.38,2.36a5.72,5.72,0,0,0-1.59.65l-2-1.39L28.4,28,29.77,30a5.78,5.78,0,0,0-.67,1.6L26.75,32v2l2.35.42a5.63,5.63,0,0,0,.66,1.6l-1.38,1.94,1.41,1.41,2-1.37a5.69,5.69,0,0,0,1.59.66L33.73,41h2l.42-2.37A5.87,5.87,0,0,0,37.74,38l2,1.38,1.42-1.41-1.41-2a5.78,5.78,0,0,0,.65-1.58Zm-8,1.81A2.79,2.79,0,1,1,37.54,33,2.79,2.79,0,0,1,34.75,35.79Z"/></svg>